<svg width="534" height="514" viewBox="0 0 534 514" fill="none" xmlns="http://www.w3.org/2000/svg">
<path d="M199.087 121.25V298.06C199.087 301.681 194.722 303.502 192.156 300.936L141.199 250.061C138.964 247.827 137.702 244.786 137.702 241.599V64.6644C137.702 61.0438 142.088 59.2231 144.633 61.7886L195.57 112.808C197.805 115.043 199.067 118.084 199.067 121.25H199.087ZM297.817 28.8719L270.259 1.33446C268.479 -0.44482 265.583 -0.44482 263.803 1.33446L236.163 28.9547C234.052 31.065 232.873 33.9201 232.873 36.8994V337.039C232.873 340.018 234.052 342.874 236.163 344.984L263.803 372.604C265.583 374.383 268.479 374.383 270.259 372.604L297.817 345.046C299.927 342.936 301.106 340.08 301.106 337.101V36.8166C301.106 33.8374 299.927 30.9822 297.817 28.8719ZM389.367 61.7886L338.347 112.808C336.113 115.043 334.851 118.084 334.851 121.25V298.205C334.851 301.826 339.237 303.647 341.781 301.081L392.801 250.061C395.036 247.827 396.298 244.786 396.298 241.62V64.6644C396.298 61.0438 391.912 59.2231 389.367 61.7886Z" fill="white"/>
<path d="M0 450.229H24.6956V513.58H39.0259V450.229H63.6046V436.001H0V450.229Z" fill="white"/>
<path d="M75.704 436.109V513.58H89.9271V486.967H115.353L137.76 513.58H153.269V509.916L133.99 486.967H138.188C146.479 486.967 153.269 480.175 153.269 471.989V451.086C153.269 442.901 146.479 436.109 138.188 436.109H75.704ZM138.938 471.989C138.938 472.418 138.617 472.74 138.188 472.74H90.6772C90.2486 472.74 89.9271 472.418 89.9271 471.989V451.086C89.9271 450.658 90.2486 450.336 90.6772 450.336H138.188C138.617 450.336 138.938 450.658 138.938 451.086V471.989Z" fill="white"/>
<path d="M183.42 436.001H169.197V513.58H183.42V436.001Z" fill="white"/>
<path d="M261.822 436.001H199.348V513.58H261.822C270.113 513.58 276.903 506.895 276.903 498.602V450.979C276.903 442.686 270.113 436.001 261.822 436.001ZM262.582 498.602C262.582 499.031 262.261 499.353 261.832 499.353H214.331C213.902 499.353 213.581 499.031 213.581 498.602V450.979C213.581 450.551 213.902 450.229 214.331 450.229H261.832C262.261 450.229 262.582 450.551 262.582 450.979V498.602Z" fill="white"/>
<path d="M293.142 513.58H364.453V499.362H307.463V481.9H353.357V467.682H307.463V450.229H364.453V436.001H293.142V513.58Z" fill="white"/>
<path d="M444.044 492.892L396.328 436.001H380.809V513.58H395.032V456.69L442.865 513.58H458.374V436.001H444.044V492.892Z" fill="white"/>
<path d="M470.395 436.001V450.229H495.091V513.58H509.412V450.229H534V436.001H470.395Z" fill="white"/>
</svg>
