<svg version="1.1" id="Layer_1" xmlns="http://www.w3.org/2000/svg" xmlns:xlink="http://www.w3.org/1999/xlink" x="0px" y="0px"
	 width="100%" viewBox="0 0 865 941" enable-background="new 0 0 865 941" xml:space="preserve">
<path fill="#000000" opacity="1.000000" stroke="none" 
	d="
M1.000003,897.000000 
	C1.000000,598.440735 1.000000,299.881470 1.000000,1.000000 
	C93.692245,1.000000 186.384872,1.000000 279.832642,1.317767 
	C280.269714,2.019326 280.023987,2.623414 279.623138,2.754997 
	C266.254150,7.143591 259.335632,17.334887 256.152771,30.154139 
	C254.287247,37.667774 253.892227,45.560062 253.014175,53.302254 
	C251.597443,65.794106 250.220230,78.292427 249.032578,90.807587 
	C248.180328,99.788353 247.737915,108.807205 246.983475,117.798225 
	C245.453934,136.026215 238.442612,152.687576 231.846115,169.421143 
	C225.326141,185.960541 218.092255,202.221527 211.718811,218.814865 
	C204.007751,238.890778 199.981308,259.736938 201.025162,281.345673 
	C201.883057,299.104858 203.392838,316.840149 203.911087,334.606506 
	C204.897614,368.426544 202.106796,402.340759 206.083054,436.081116 
	C207.387634,447.150940 208.961685,458.294617 211.747116,469.059143 
	C215.744629,484.507996 214.042267,498.927490 206.615494,512.748169 
	C201.454926,522.351624 195.282822,531.437988 190.519440,541.221252 
	C185.088028,552.376526 184.254181,564.200623 186.749557,576.608826 
	C189.276093,589.171997 195.236832,599.689209 202.876144,609.607117 
	C198.988419,611.801758 195.060715,613.699280 191.470718,616.101501 
	C176.861603,625.876953 162.185623,635.567383 147.861847,645.749939 
	C134.399750,655.319946 120.801170,664.826965 108.260620,675.530945 
	C93.350800,688.257141 80.533592,703.206604 69.359627,719.328857 
	C49.673733,747.732422 34.342529,778.415100 22.955322,811.066589 
	C13.429490,838.380676 6.120805,866.207092 2.920061,895.029358 
	C2.840198,895.748474 1.664577,896.345825 1.000003,897.000000 
z"/>
<path fill="#000000" opacity="1.000000" stroke="none" 
	d="
M306.000000,1.000003 
	C492.612457,1.000000 679.224915,1.000000 866.000000,1.000000 
	C866.000000,291.694672 866.000000,582.389404 865.636475,873.844116 
	C864.855530,873.933167 864.212341,873.311401 864.054016,872.584106 
	C861.004028,858.578796 859.080261,844.221924 854.767517,830.621521 
	C847.413940,807.432129 839.121887,784.496948 830.179321,761.867798 
	C822.513672,742.469788 810.415955,725.494568 796.451294,710.117371 
	C781.302185,693.435730 764.165649,678.907959 745.693054,665.895447 
	C723.746460,650.435730 700.187012,637.897949 676.245911,625.959290 
	C674.680603,625.178772 672.501587,623.747559 672.314087,622.384338 
	C670.891357,612.040405 665.411377,603.418579 661.157227,594.249268 
	C659.843384,591.417297 659.321716,588.076477 659.072266,584.918457 
	C658.308044,575.242371 661.264282,566.231567 665.710815,557.940369 
	C671.935181,546.334229 679.430054,535.405090 685.567322,523.757385 
	C702.103760,492.373718 714.612183,459.524414 722.263977,424.723877 
	C727.713013,399.941589 730.699341,374.935425 731.775513,349.732239 
	C732.378235,335.616211 730.683655,321.401093 730.003723,307.231598 
	C729.152344,289.487396 725.944519,272.125946 722.111267,254.802582 
	C716.211060,228.139252 707.699158,202.525131 693.987183,178.790680 
	C680.587585,155.596863 661.784302,137.931335 637.895508,126.151711 
	C622.680786,118.649292 606.895325,112.196167 591.038391,106.128342 
	C563.965637,95.768715 536.638000,86.074783 509.412872,76.113571 
	C471.958008,62.409462 434.543060,48.594395 397.027191,35.059280 
	C368.703217,24.840446 340.234741,15.022485 311.876984,4.896201 
	C309.728210,4.128902 307.950287,2.323083 306.000000,1.000003 
z"/>
<path fill="#FDFDFD" opacity="1.000000" stroke="none" 
	d="
M305.531342,1.000003 
	C307.950287,2.323083 309.728210,4.128902 311.876984,4.896201 
	C340.234741,15.022485 368.703217,24.840446 397.027191,35.059280 
	C434.543060,48.594395 471.958008,62.409462 509.412872,76.113571 
	C536.638000,86.074783 563.965637,95.768715 591.038391,106.128342 
	C606.895325,112.196167 622.680786,118.649292 637.895508,126.151711 
	C661.784302,137.931335 680.587585,155.596863 693.987183,178.790680 
	C707.699158,202.525131 716.211060,228.139252 722.111267,254.802582 
	C725.944519,272.125946 729.152344,289.487396 730.003723,307.231598 
	C730.683655,321.401093 732.378235,335.616211 731.775513,349.732239 
	C730.699341,374.935425 727.713013,399.941589 722.263977,424.723877 
	C714.612183,459.524414 702.103760,492.373718 685.567322,523.757385 
	C679.430054,535.405090 671.935181,546.334229 665.710815,557.940369 
	C661.264282,566.231567 658.308044,575.242371 659.072266,584.918457 
	C659.321716,588.076477 659.843384,591.417297 661.157227,594.249268 
	C665.411377,603.418579 670.891357,612.040405 672.314087,622.384338 
	C672.501587,623.747559 674.680603,625.178772 676.245911,625.959290 
	C700.187012,637.897949 723.746460,650.435730 745.693054,665.895447 
	C764.165649,678.907959 781.302185,693.435730 796.451294,710.117371 
	C810.415955,725.494568 822.513672,742.469788 830.179321,761.867798 
	C839.121887,784.496948 847.413940,807.432129 854.767517,830.621521 
	C859.080261,844.221924 861.004028,858.578796 864.054016,872.584106 
	C864.212341,873.311401 864.855530,873.933167 865.636475,874.302002 
	C866.000000,889.687561 866.000000,905.375122 865.647705,921.230774 
	C864.870667,922.052734 864.116394,922.684937 864.071594,923.363953 
	C863.573120,930.914124 861.014404,937.082397 853.440063,940.165527 
	C853.100708,940.303650 853.138062,941.367371 853.000000,942.000000 
	C572.979126,942.000000 292.958221,942.000000 12.758961,941.696777 
	C8.960946,938.095825 5.343606,934.795532 1.697923,931.526672 
	C1.647379,931.481323 1.240514,931.833374 0.999986,932.000000 
	C1.000000,920.645752 1.000000,909.291565 1.000003,897.468628 
	C1.664577,896.345825 2.840198,895.748474 2.920061,895.029358 
	C6.120805,866.207092 13.429490,838.380676 22.955322,811.066589 
	C34.342529,778.415100 49.673733,747.732422 69.359627,719.328857 
	C80.533592,703.206604 93.350800,688.257141 108.260620,675.530945 
	C120.801170,664.826965 134.399750,655.319946 147.861847,645.749939 
	C162.185623,635.567383 176.861603,625.876953 191.470718,616.101501 
	C195.060715,613.699280 198.988419,611.801758 202.876144,609.607117 
	C195.236832,599.689209 189.276093,589.171997 186.749557,576.608826 
	C184.254181,564.200623 185.088028,552.376526 190.519440,541.221252 
	C195.282822,531.437988 201.454926,522.351624 206.615494,512.748169 
	C214.042267,498.927490 215.744629,484.507996 211.747116,469.059143 
	C208.961685,458.294617 207.387634,447.150940 206.083054,436.081116 
	C202.106796,402.340759 204.897614,368.426544 203.911087,334.606506 
	C203.392838,316.840149 201.883057,299.104858 201.025162,281.345673 
	C199.981308,259.736938 204.007751,238.890778 211.718811,218.814865 
	C218.092255,202.221527 225.326141,185.960541 231.846115,169.421143 
	C238.442612,152.687576 245.453934,136.026215 246.983475,117.798225 
	C247.737915,108.807205 248.180328,99.788353 249.032578,90.807587 
	C250.220230,78.292427 251.597443,65.794106 253.014175,53.302254 
	C253.892227,45.560062 254.287247,37.667774 256.152771,30.154139 
	C259.335632,17.334887 266.254150,7.143591 279.623138,2.754997 
	C280.023987,2.623414 280.269714,2.019326 280.293884,1.317767 
	C288.354218,1.000000 296.708466,1.000000 305.531342,1.000003 
M470.500000,928.000854 
	C567.330505,928.000854 664.161011,927.996338 760.991516,928.003784 
	C788.484375,928.005920 815.977478,927.984009 843.469727,928.125916 
	C847.755615,928.148010 849.635925,926.687195 850.388000,922.324219 
	C853.107361,906.547485 852.747314,890.795593 850.531677,875.058777 
	C846.357605,845.411072 836.249756,817.469299 826.361328,789.374817 
	C813.969482,754.167847 794.307617,724.269592 766.298035,699.634949 
	C738.329773,675.036804 706.761414,656.187622 673.332031,640.195251 
	C668.441467,637.855591 663.499878,635.622437 658.613586,633.354736 
	C660.127502,622.761108 655.921631,614.047546 651.320251,605.509460 
	C646.370911,596.325684 643.011047,586.595886 645.506592,576.303589 
	C647.834595,566.702698 650.892334,557.060669 655.220276,548.215515 
	C661.190002,536.015198 669.224854,524.836426 675.387390,512.717773 
	C722.422241,420.223389 730.838501,324.313110 699.646179,225.241257 
	C691.520630,199.433167 679.379578,175.698334 659.018799,157.015228 
	C642.656494,142.001160 623.058044,132.584076 602.529480,125.074554 
	C502.929382,88.639992 403.263092,52.386253 303.596405,16.133980 
	C286.742767,10.003723 272.314331,17.086853 269.305298,34.751553 
	C265.988953,54.220222 264.229095,74.043694 263.179749,93.786407 
	C261.832855,119.126099 257.518585,143.621719 247.578018,167.032150 
	C241.807159,180.622726 236.057632,194.222427 230.326248,207.829697 
	C219.215118,234.209335 212.165695,261.490143 214.483047,290.327057 
	C217.315292,325.571289 218.414612,360.830627 217.862717,396.170380 
	C217.468750,421.398529 219.636261,446.339996 225.939789,470.909760 
	C229.891022,486.310760 227.596710,501.380951 220.283173,515.459412 
	C215.848267,523.996521 210.659546,532.139221 205.914993,540.518860 
	C193.430405,562.568542 199.427551,584.219788 213.880936,600.330933 
	C218.336151,605.297180 223.689041,609.458130 227.698349,613.132996 
	C216.345764,619.187439 204.218201,624.938232 192.841812,631.913940 
	C180.234940,639.644348 168.456604,648.711548 156.067505,656.814270 
	C124.224113,677.640503 96.394157,702.508423 75.696136,734.816895 
	C39.267986,791.679321 18.513151,853.679565 14.319171,921.143433 
	C13.935730,927.311401 14.723351,928.000061 21.512604,928.000061 
	C170.841736,928.001038 320.170868,928.000854 470.500000,928.000854 
z"/>
<path fill="#000000" opacity="1.000000" stroke="none" 
	d="
M853.476624,942.000000 
	C853.138062,941.367371 853.100708,940.303650 853.440063,940.165527 
	C861.014404,937.082397 863.573120,930.914124 864.071594,923.363953 
	C864.116394,922.684937 864.870667,922.052734 865.647705,921.699463 
	C866.000000,928.573669 866.000000,935.147400 866.000000,942.000000 
	C861.988647,942.000000 857.971008,942.000000 853.476624,942.000000 
z"/>
<path fill="#000000" opacity="1.000000" stroke="none" 
	d="
M0.999986,932.486572 
	C1.240514,931.833374 1.647379,931.481323 1.697923,931.526672 
	C5.343606,934.795532 8.960946,938.095825 12.290304,941.696777 
	C8.417961,942.000000 4.835922,942.000000 1.000000,942.000000 
	C1.000000,938.993652 1.000000,935.983398 0.999986,932.486572 
z"/>
<path fill="#030202" opacity="1.000000" stroke="none" 
	d="
M470.000000,928.000854 
	C320.170868,928.000854 170.841736,928.001038 21.512604,928.000061 
	C14.723351,928.000061 13.935730,927.311401 14.319171,921.143433 
	C18.513151,853.679565 39.267986,791.679321 75.696136,734.816895 
	C96.394157,702.508423 124.224113,677.640503 156.067505,656.814270 
	C168.456604,648.711548 180.234940,639.644348 192.841812,631.913940 
	C204.218201,624.938232 216.345764,619.187439 227.698349,613.132996 
	C223.689041,609.458130 218.336151,605.297180 213.880936,600.330933 
	C199.427551,584.219788 193.430405,562.568542 205.914993,540.518860 
	C210.659546,532.139221 215.848267,523.996521 220.283173,515.459412 
	C227.596710,501.380951 229.891022,486.310760 225.939789,470.909760 
	C219.636261,446.339996 217.468750,421.398529 217.862717,396.170380 
	C218.414612,360.830627 217.315292,325.571289 214.483047,290.327057 
	C212.165695,261.490143 219.215118,234.209335 230.326248,207.829697 
	C236.057632,194.222427 241.807159,180.622726 247.578018,167.032150 
	C257.518585,143.621719 261.832855,119.126099 263.179749,93.786407 
	C264.229095,74.043694 265.988953,54.220222 269.305298,34.751553 
	C272.314331,17.086853 286.742767,10.003723 303.596405,16.133980 
	C403.263092,52.386253 502.929382,88.639992 602.529480,125.074554 
	C623.058044,132.584076 642.656494,142.001160 659.018799,157.015228 
	C679.379578,175.698334 691.520630,199.433167 699.646179,225.241257 
	C730.838501,324.313110 722.422241,420.223389 675.387390,512.717773 
	C669.224854,524.836426 661.190002,536.015198 655.220276,548.215515 
	C650.892334,557.060669 647.834595,566.702698 645.506592,576.303589 
	C643.011047,586.595886 646.370911,596.325684 651.320251,605.509460 
	C655.921631,614.047546 660.127502,622.761108 658.613586,633.354736 
	C663.499878,635.622437 668.441467,637.855591 673.332031,640.195251 
	C706.761414,656.187622 738.329773,675.036804 766.298035,699.634949 
	C794.307617,724.269592 813.969482,754.167847 826.361328,789.374817 
	C836.249756,817.469299 846.357605,845.411072 850.531677,875.058777 
	C852.747314,890.795593 853.107361,906.547485 850.388000,922.324219 
	C849.635925,926.687195 847.755615,928.148010 843.469727,928.125916 
	C815.977478,927.984009 788.484375,928.005920 760.991516,928.003784 
	C664.161011,927.996338 567.330505,928.000854 470.000000,928.000854 
M557.055664,662.186707 
	C555.034912,662.790955 553.014160,663.395264 550.186340,664.003235 
	C548.900208,664.264771 547.588745,664.438538 546.331848,664.801453 
	C533.178040,668.599915 520.836365,674.173950 509.725983,682.212585 
	C505.796875,685.055359 503.670624,683.964966 501.489899,680.125366 
	C498.469391,674.807129 495.552612,669.283691 491.643402,664.647522 
	C483.926971,655.496155 475.629700,646.715210 462.972626,644.529114 
	C452.599640,642.737610 442.645630,645.143494 432.049347,648.042603 
	C430.072235,648.686584 428.095154,649.330505 425.248199,649.984863 
	C414.293427,652.333801 403.260803,654.373474 392.402985,657.107300 
	C377.783997,660.788208 363.131042,663.377502 348.405975,658.558228 
	C332.346191,653.302124 316.523560,647.325195 300.528595,641.864441 
	C296.493286,640.486816 292.195068,639.879089 287.299988,638.852539 
	C271.866516,632.897156 256.433014,626.941772 240.473969,620.413879 
	C238.841934,620.366028 237.115173,619.944031 235.592865,620.329529 
	C223.601761,623.365479 212.143021,627.790771 201.857956,634.752380 
	C183.169434,647.402039 164.539413,660.141052 146.014206,673.028503 
	C126.836578,686.369690 109.666199,701.910583 95.308525,720.435791 
	C77.611221,743.269958 63.590725,768.236816 52.116535,794.693542 
	C35.765541,832.395142 25.431606,871.627075 22.028971,912.626526 
	C21.335697,920.979980 21.383108,920.988342 29.581150,920.979858 
	C31.412169,920.977905 33.243137,920.932251 36.001701,920.930237 
	C202.206543,920.930237 368.411377,920.930237 535.149414,920.930237 
	C532.627258,913.692688 530.012024,907.421082 528.265503,900.916199 
	C524.766052,887.882629 527.651123,874.918274 529.568604,862.001892 
	C531.215088,850.911255 531.998169,839.895630 528.584351,828.962219 
	C527.149597,824.367249 525.649048,819.765503 524.702515,815.061462 
	C524.406189,813.588928 525.822876,811.771729 526.455444,810.112305 
	C528.216553,811.000244 531.094360,811.497742 531.562866,812.837708 
	C535.454468,823.967773 539.228943,835.285400 538.768127,847.230713 
	C538.437134,855.813110 537.474792,864.483948 535.663940,872.871399 
	C532.496155,887.543945 534.878906,901.208008 541.183594,914.471497 
	C544.578674,921.613770 547.539734,922.706787 556.120850,919.854919 
	C553.488770,911.000427 550.878784,902.117493 548.196167,893.256531 
	C547.353271,890.472473 546.095581,887.387878 550.050110,886.283325 
	C553.885864,885.211975 554.720032,888.499146 555.557739,891.230408 
	C558.041138,899.328552 560.723450,907.378967 562.807922,915.580200 
	C563.801880,919.490723 565.360535,921.032715 569.535583,921.028320 
	C659.017212,920.934387 748.499023,920.937500 837.980530,921.075806 
	C842.115173,921.082153 843.524536,919.559814 844.003662,915.836914 
	C846.169434,899.008118 844.511841,882.393005 841.486023,865.834167 
	C837.107910,841.875366 829.524475,818.835388 820.795776,796.202576 
	C815.300842,781.954773 809.770813,767.518311 802.286865,754.279907 
	C783.944580,721.834412 756.583008,697.731812 725.550598,678.074524 
	C705.786499,665.555115 684.616028,655.252441 664.031921,644.036865 
	C662.182068,643.028992 660.007263,642.617493 657.582092,641.461609 
	C656.442871,642.198914 654.975342,642.691162 654.214478,643.710754 
	C645.015076,656.038757 632.716370,662.133667 617.409180,661.961304 
	C608.631104,661.862488 599.856262,661.034119 591.082703,661.079041 
	C579.979065,661.135864 568.878174,661.746826 557.055664,662.186707 
M405.672699,534.198303 
	C401.502625,530.504822 397.332520,526.811401 393.162445,523.117920 
	C392.658020,523.263611 392.153564,523.409302 391.649139,523.554932 
	C388.341339,566.941101 375.784576,608.966858 372.734924,654.001892 
	C382.993347,651.441833 392.005920,649.192749 401.833496,647.059753 
	C414.649292,644.188782 427.487000,641.411621 440.275085,638.422119 
	C454.822754,635.021179 468.765472,635.672729 481.402496,644.499451 
	C485.730804,647.522583 489.596313,651.208191 493.819214,654.712219 
	C504.750824,648.431396 515.764099,642.215759 526.666260,635.810974 
	C540.107849,627.914490 543.681152,611.841187 535.138245,598.360168 
	C515.696228,600.922729 497.428955,596.874878 479.899231,588.595093 
	C460.416321,579.392700 444.046448,565.746094 427.620300,552.156128 
	C420.485321,546.253052 413.174957,540.562012 405.672699,534.198303 
M697.593445,434.583069 
	C698.024475,433.687286 698.621033,432.833771 698.862366,431.889496 
	C704.747925,408.861359 709.037476,385.452515 709.695251,361.755951 
	C710.312012,339.536407 709.776550,317.138794 707.625000,295.026123 
	C705.050598,268.568237 698.471252,242.745941 689.046936,217.787735 
	C681.945251,198.980606 672.515808,181.521637 658.422546,166.891983 
	C644.867004,152.820541 628.187744,143.363495 610.318787,136.416428 
	C576.868408,123.411629 543.050354,111.351875 509.372803,98.932732 
	C480.995148,88.468018 452.640411,77.938843 424.191833,67.669968 
	C413.282745,63.732178 402.141693,60.436829 390.905212,56.172596 
	C387.592834,54.773907 384.336456,53.220093 380.959229,52.001060 
	C353.790680,42.194374 326.732544,32.052967 299.349518,22.883354 
	C288.370697,19.206936 279.669983,22.943041 276.694305,34.904060 
	C275.070892,41.429504 274.629089,48.277294 273.979034,55.011044 
	C272.231049,73.118874 270.239868,91.218483 269.150513,109.369682 
	C268.318665,123.230141 266.187866,136.851837 261.415039,149.719284 
	C251.780106,175.695053 240.923782,201.215302 231.056259,227.108261 
	C225.614700,241.387222 221.673615,256.245087 222.092072,271.675781 
	C222.662704,292.717896 224.371078,313.730133 224.887390,334.772461 
	C225.597198,363.700531 225.649200,392.644745 225.980621,421.582062 
	C226.162018,437.419861 229.018143,452.846466 233.092300,468.904877 
	C236.797028,484.481964 235.119507,499.713867 228.858643,514.203247 
	C225.323776,522.383911 220.237610,529.899658 215.779999,537.674622 
	C210.871384,546.236084 205.882538,555.015747 206.261215,565.105408 
	C206.723892,577.433350 211.757843,588.141663 220.485352,597.147400 
	C231.822266,608.845764 246.280319,615.033813 261.647583,621.274353 
	C287.221619,630.063049 312.761047,638.954651 338.393127,647.570801 
	C345.106110,649.827332 352.106659,651.228394 359.684509,653.358276 
	C361.251587,653.567200 362.818665,653.776184 364.361237,653.981873 
	C364.693024,653.012756 364.931366,652.564758 364.995605,652.093140 
	C367.388031,634.531738 368.873871,616.791016 372.325897,599.441284 
	C379.810455,561.824646 384.605042,523.893738 387.945770,485.737000 
	C389.970428,462.611786 391.532776,439.435364 394.120239,416.373657 
	C396.094269,398.779327 398.671967,381.190857 402.196136,363.846680 
	C407.690521,336.806274 418.246307,311.679840 435.297760,289.799347 
	C447.436859,274.222412 460.490173,259.356201 473.188141,244.216949 
	C488.431458,226.042984 505.226166,209.588852 525.507568,196.969131 
	C542.331726,186.500610 560.461548,179.710464 580.333252,179.167511 
	C611.116943,178.326401 634.974792,192.337372 653.754639,215.744019 
	C674.592896,241.716156 682.409485,272.372650 683.812683,304.850891 
	C684.823975,328.260406 684.276917,351.711029 680.289185,375.068634 
	C675.650330,375.866241 673.728027,373.752350 674.107910,369.108246 
	C675.201355,355.743378 676.358887,342.370544 676.878845,328.977081 
	C677.186890,321.043365 676.185303,313.067535 676.037903,305.105713 
	C675.699890,286.844147 671.973267,269.246460 665.856384,252.121002 
	C664.476685,248.258347 662.513550,244.604095 660.818970,240.853912 
	C660.056091,242.504608 660.013000,243.832214 660.062622,245.156342 
	C660.696716,262.071930 661.708069,278.983795 661.858093,295.903412 
	C661.955566,306.893585 660.856689,307.525726 651.602722,308.095398 
	C651.319580,308.112854 651.052673,308.394989 650.432312,308.753815 
	C656.092468,324.174286 657.415344,340.255829 657.164001,356.657410 
	C657.063904,363.191132 658.403381,369.819855 659.696777,376.283386 
	C661.286682,384.229126 664.325989,391.953033 665.254456,399.945282 
	C666.352722,409.398651 667.201782,419.252686 665.695801,428.533417 
	C664.156250,438.021606 660.205811,447.275391 656.313660,456.196838 
	C642.340759,488.224792 627.024658,519.610535 606.986389,548.369751 
	C593.280396,568.040894 576.086670,583.894348 553.547058,593.213318 
	C550.397339,594.515442 545.526184,595.234863 544.626953,597.490112 
	C543.511414,600.287842 545.901245,604.375610 546.430298,607.957275 
	C547.974854,618.413452 547.220276,628.555359 538.485413,635.809875 
	C532.534424,640.752258 525.761658,644.745850 519.168762,648.863586 
	C512.477600,653.042847 505.556183,656.853455 498.472015,660.979065 
	C501.637115,665.918640 504.383423,670.204651 506.371277,673.307007 
	C519.335327,668.004700 531.635803,662.254517 544.415344,657.915161 
	C563.670105,651.377197 583.577759,652.423767 603.489868,654.609863 
	C616.797913,656.070923 629.923279,655.114197 641.124756,646.793396 
	C647.066284,642.379822 652.276917,636.628540 650.856506,628.387451 
	C649.838562,622.481079 648.145874,616.455383 645.477783,611.121338 
	C640.884521,601.938660 636.566467,592.658142 637.162598,582.301941 
	C637.922180,569.105164 641.795837,556.568542 648.401062,545.026062 
	C655.734741,532.210388 663.947815,519.839539 670.449219,506.621429 
	C677.840332,491.594360 684.145203,475.991791 690.163269,460.347443 
	C693.287231,452.226654 694.773804,443.475983 697.593445,434.583069 
M599.098511,305.138428 
	C597.124939,294.403442 595.151367,283.668457 593.177795,272.933472 
	C588.750488,284.499023 587.488892,296.173706 588.401428,308.067963 
	C588.693115,311.869446 587.658875,313.741455 583.434204,314.346985 
	C566.645691,316.753326 549.903992,316.665955 533.213623,313.929077 
	C517.156250,311.296082 501.651642,306.778778 487.153412,298.849213 
	C486.651794,300.333832 485.936829,301.713715 485.739685,303.163971 
	C484.976135,308.781982 481.687195,310.191193 476.334778,310.235107 
	C463.533112,310.340057 451.077393,308.932373 439.238708,303.861511 
	C436.520966,302.697418 434.939362,303.132935 433.616852,305.744110 
	C429.111359,314.639984 424.413055,323.439392 419.996796,332.378601 
	C418.444000,335.521790 417.492615,338.962067 416.141632,342.603607 
	C424.955750,343.062653 432.922028,343.639496 440.898102,343.858093 
	C455.989075,344.271729 470.110992,347.716217 483.132904,355.688843 
	C495.369659,363.180756 495.603363,363.043213 487.350098,374.865326 
	C486.159027,376.571411 483.441040,378.058105 481.358734,378.157196 
	C468.387817,378.774689 455.379211,378.668396 442.419647,379.426880 
	C435.817719,379.813263 430.912354,377.477112 426.355164,373.155579 
	C421.588501,368.635406 416.568665,364.382111 411.304535,359.696198 
	C410.756592,361.300903 410.304352,362.197296 410.149475,363.142426 
	C407.382690,380.026642 403.934814,396.837982 402.068207,413.822632 
	C398.577667,445.583679 395.949768,477.440918 393.194183,509.278137 
	C393.017151,511.323303 394.230927,514.214172 395.790405,515.569092 
	C407.852661,526.049072 420.129822,536.283203 432.398132,546.524292 
	C448.632660,560.076294 464.874817,573.605652 484.294525,582.609436 
	C513.669250,596.228943 541.918579,595.284546 568.986023,576.566589 
	C582.330261,567.338623 593.138306,555.653992 602.248596,542.380066 
	C622.113525,513.436218 636.710571,481.702087 651.527710,450.022522 
	C660.246338,431.381775 662.444702,412.422363 656.454956,393.257843 
	C651.398926,377.080811 649.829529,360.935913 649.414185,344.188721 
	C649.154663,333.724457 645.763245,323.329620 643.671875,312.924835 
	C643.149780,310.327301 641.813782,309.307892 638.683594,309.863525 
	C629.523376,311.489410 620.259399,312.522186 611.051575,313.890991 
	C601.811890,315.264526 601.053040,314.800964 599.098511,305.138428 
M488.536957,238.086304 
	C487.987640,238.916031 487.524414,239.820847 486.876190,240.564316 
	C475.222931,253.930099 463.466614,267.207153 451.920349,280.664459 
	C447.883270,285.369720 444.351654,290.508667 440.320648,295.802277 
	C441.370514,296.480682 441.757690,296.802551 442.200104,297.001770 
	C443.104523,297.409027 444.027740,297.781006 444.962219,298.114075 
	C454.319061,301.449066 463.983215,302.358093 473.861328,302.084015 
	C476.987793,301.997253 478.733734,301.195221 479.566101,297.978210 
	C482.592224,286.282318 485.700104,274.602600 489.127930,263.020569 
	C489.693329,261.110352 492.017731,259.720734 493.529236,258.090515 
	C494.686371,260.015961 496.868408,261.966003 496.822845,263.862518 
	C496.628387,271.951172 495.829041,280.028564 495.139282,288.100586 
	C494.814880,291.896942 494.751587,294.565308 499.502014,296.537384 
	C514.046936,302.575531 529.265564,305.429169 544.632751,307.963562 
	C549.001770,308.684143 550.623962,306.691864 551.017822,302.660828 
	C551.418518,298.560089 551.929443,294.446045 552.768188,290.416077 
	C559.096558,260.008942 571.757141,231.781143 582.970825,203.056229 
	C584.972046,197.929916 586.949768,192.794434 589.062988,187.341492 
	C571.715393,185.622574 556.457458,189.818451 541.883301,196.644058 
	C521.248901,206.307892 504.604431,221.293991 488.536957,238.086304 
M602.992798,283.573395 
	C604.057434,289.426605 604.993713,295.307526 606.249146,301.119568 
	C606.760071,303.484650 606.777100,306.476929 610.913940,306.089417 
	C614.903198,305.715729 614.462585,302.807709 614.963318,300.386322 
	C615.641174,297.108032 616.124573,293.789551 616.943665,289.018921 
	C620.229309,294.318604 622.678955,298.269867 625.247925,302.413483 
	C634.272461,296.838287 635.924927,288.130493 635.773621,279.578796 
	C635.566650,267.882446 633.911804,256.201019 632.658630,244.536728 
	C631.230347,231.242493 629.646179,217.962936 627.898804,204.707443 
	C627.657776,202.879013 626.518494,200.351364 625.063660,199.636902 
	C617.229431,195.789642 609.223694,192.267151 601.140503,188.967209 
	C598.871765,188.040985 596.141052,188.246490 592.864319,187.838547 
	C591.673340,210.814804 590.528076,232.910034 589.362915,255.387436 
	C595.857300,253.266068 596.971130,253.763885 598.216858,259.400726 
	C599.927307,267.140747 601.382996,274.937073 602.992798,283.573395 
M443.984436,354.650177 
	C444.307434,353.825928 444.630463,353.001709 445.155701,351.661469 
	C434.200806,351.110107 423.883728,350.590851 413.566650,350.071625 
	C420.004242,357.381744 426.719666,363.744934 433.892670,369.541870 
	C436.138611,371.356995 439.617523,371.646423 441.518524,372.290710 
	C442.344055,365.968018 443.033081,360.690918 443.984436,354.650177 
M484.093903,365.657288 
	C481.926758,364.059265 479.759613,362.461243 477.318207,360.660980 
	C476.027893,364.361267 474.952972,367.443909 473.824677,370.679596 
	C478.403229,371.696014 482.163605,371.400848 484.093903,365.657288 
z"/>
<path fill="#4A2C1A" opacity="1.000000" stroke="none" 
	d="
M240.999527,620.986389 
	C256.433014,626.941772 271.866516,632.897156 287.841614,639.175720 
	C298.686615,646.186279 308.884338,653.044067 319.323273,659.512756 
	C329.605530,665.884277 339.725494,672.737732 350.646973,677.806091 
	C367.037598,685.412354 384.164185,681.472168 401.013550,678.493164 
	C414.957642,676.027771 428.905975,674.234070 442.925812,677.985718 
	C445.461487,678.664246 448.010620,679.292297 450.796570,680.132812 
	C456.860718,687.544006 462.692017,694.757935 468.500885,701.989868 
	C481.661713,718.375000 494.811493,734.768921 507.767426,751.424194 
	C503.788666,754.140076 500.008240,756.591125 495.857544,759.282166 
	C496.402679,754.696167 496.844574,750.427002 497.433411,746.178223 
	C498.036041,741.830078 495.955566,739.013489 491.565704,739.049805 
	C487.765472,739.081238 483.974609,739.750916 480.170197,739.901855 
	C476.172546,740.060425 474.881409,742.617493 474.018799,745.932800 
	C473.350250,748.502258 472.345398,750.984314 471.165588,754.461548 
	C465.848877,743.428040 461.756165,740.254700 453.905121,741.076416 
	C445.343781,741.972473 441.297424,747.527344 439.881866,755.576111 
	C439.687073,756.683655 438.615936,757.637085 437.578827,759.234253 
	C436.881836,756.993958 436.397491,755.588623 436.006989,754.157715 
	C433.189636,743.833740 432.747040,743.148254 420.336151,744.446289 
	C420.011597,744.480225 419.706940,744.676514 419.381805,744.736511 
	C411.037964,746.278137 410.690216,746.711121 410.894287,755.280396 
	C407.012604,757.289856 407.707733,760.445740 408.334717,763.328064 
	C408.965759,766.229187 410.115021,769.014648 410.978729,771.868469 
	C414.621674,783.905273 418.122040,795.987122 421.924530,807.973083 
	C423.735260,813.680847 430.324127,818.212952 435.476013,817.894531 
	C442.558594,817.456787 447.723663,813.358215 449.402832,806.887817 
	C451.458740,804.147522 453.234283,801.585510 455.290985,799.236450 
	C456.238220,801.310120 456.796753,803.218079 457.590118,805.022705 
	C460.187469,810.930908 466.505035,815.315979 471.739899,814.950562 
	C478.374176,814.487427 483.047546,810.949951 485.084961,804.679077 
	C486.506592,802.614563 487.768677,800.840759 489.366058,799.088867 
	C490.486694,799.914978 491.341400,800.663086 492.046387,801.532471 
	C497.638275,808.428833 504.660553,812.030701 513.703979,811.008057 
	C520.702698,810.216675 527.694885,809.364990 534.697083,808.606140 
	C539.338806,808.103088 541.443970,805.628357 541.211304,800.950195 
	C541.661438,800.934204 541.841736,800.937866 542.015015,801.333496 
	C542.284058,806.352051 544.564575,808.159424 549.216064,807.194763 
	C551.127380,806.798340 553.171814,807.028259 555.156128,807.002747 
	C561.436096,806.921875 562.807068,805.546448 563.429993,799.011475 
	C564.542053,798.946716 565.283813,798.909607 566.159973,799.194336 
	C573.261353,807.216797 588.977539,807.146851 593.039734,799.625610 
	C597.155762,800.956421 601.159973,802.533264 605.303406,803.533142 
	C614.464050,805.743408 626.249023,800.124084 630.318115,791.849304 
	C637.847107,783.941528 639.735962,774.974976 638.153931,764.532532 
	C635.670227,748.139099 620.621033,738.070129 604.942444,743.167480 
	C599.654175,744.886780 595.286072,747.057068 588.674744,745.735107 
	C581.333191,744.267151 571.312561,743.887451 567.034058,754.105591 
	C567.002014,754.182190 566.481140,754.054138 566.060974,754.007446 
	C565.689514,749.402344 565.515564,744.760742 564.905029,740.177307 
	C563.485168,729.517944 563.563110,729.717102 553.906738,729.983093 
	C551.911560,730.038086 549.690063,729.515625 547.973999,730.227051 
	C545.552612,731.230957 542.540833,732.660339 541.504944,734.758667 
	C539.553345,738.711853 538.832703,743.272644 537.591797,747.610474 
	C535.088196,748.021362 532.823425,748.405823 530.552673,748.750793 
	C530.242554,748.797913 529.902527,748.648010 529.633545,748.213623 
	C535.694641,729.886353 541.698547,711.934875 548.083008,693.967285 
	C553.202820,691.950012 557.782104,689.325378 562.710327,688.061340 
	C579.390015,683.783325 596.244324,680.188477 612.936096,675.954895 
	C632.648071,670.955383 648.518494,660.617981 657.983398,641.929016 
	C660.007263,642.617493 662.182068,643.028992 664.031921,644.036865 
	C684.616028,655.252441 705.786499,665.555115 725.550598,678.074524 
	C756.583008,697.731812 783.944580,721.834412 802.286865,754.279907 
	C809.770813,767.518311 815.300842,781.954773 820.795776,796.202576 
	C829.524475,818.835388 837.107910,841.875366 841.486023,865.834167 
	C844.511841,882.393005 846.169434,899.008118 844.003662,915.836914 
	C843.524536,919.559814 842.115173,921.082153 837.980530,921.075806 
	C748.499023,920.937500 659.017212,920.934387 569.535583,921.028320 
	C565.360535,921.032715 563.801880,919.490723 562.807922,915.580200 
	C560.723450,907.378967 558.041138,899.328552 555.557739,891.230408 
	C554.720032,888.499146 553.885864,885.211975 550.050110,886.283325 
	C546.095581,887.387878 547.353271,890.472473 548.196167,893.256531 
	C550.878784,902.117493 553.488770,911.000427 556.120850,919.854919 
	C547.539734,922.706787 544.578674,921.613770 541.183594,914.471497 
	C534.878906,901.208008 532.496155,887.543945 535.663940,872.871399 
	C537.474792,864.483948 538.437134,855.813110 538.768127,847.230713 
	C539.228943,835.285400 535.454468,823.967773 531.562866,812.837708 
	C531.094360,811.497742 528.216553,811.000244 526.455444,810.112305 
	C525.822876,811.771729 524.406189,813.588928 524.702515,815.061462 
	C525.649048,819.765503 527.149597,824.367249 528.584351,828.962219 
	C531.998169,839.895630 531.215088,850.911255 529.568604,862.001892 
	C527.651123,874.918274 524.766052,887.882629 528.265503,900.916199 
	C530.012024,907.421082 532.627258,913.692688 535.149414,920.930237 
	C368.411377,920.930237 202.206543,920.930237 35.516983,920.549927 
	C35.231316,919.372498 35.336662,918.537170 35.643280,917.783875 
	C41.027927,904.555237 46.683800,891.431274 51.794102,878.097961 
	C66.306213,840.234192 81.124702,802.531067 100.105461,766.588562 
	C115.148651,738.102478 133.034546,711.616089 154.779678,687.881409 
	C171.777512,669.328430 191.012085,653.204102 211.886856,639.145264 
	C221.367462,632.760254 231.281906,627.019470 240.999527,620.986389 
M354.597321,779.910950 
	C368.404175,782.543091 381.121826,787.622009 393.368378,796.803955 
	C391.355164,796.950134 390.586975,797.041992 389.817383,797.056458 
	C373.854401,797.356812 357.870148,797.236267 341.933868,798.053040 
	C324.558380,798.943542 307.217468,800.592041 289.884003,802.159180 
	C285.626404,802.544128 281.336090,803.554199 277.302795,804.967468 
	C275.588745,805.567993 274.497467,807.945862 273.123169,809.515991 
	C275.038452,810.331970 276.937836,811.189758 278.882080,811.929688 
	C279.283264,812.082397 279.855652,811.816223 280.341919,811.710083 
	C301.170380,807.164001 322.342590,805.612305 343.564484,805.101868 
	C362.545624,804.645325 381.546844,805.065491 400.537872,804.922485 
	C402.613251,804.906921 404.679871,803.726318 406.750580,803.086121 
	C405.877869,800.934021 405.541229,798.270081 404.050201,796.708252 
	C387.509094,779.381470 365.901611,773.134949 343.183350,770.168274 
	C325.449646,767.852478 307.561646,766.715393 289.739960,765.078796 
	C287.011627,764.828308 283.888550,764.681885 283.328827,768.140259 
	C282.749023,771.722778 285.915863,772.559326 288.544495,772.810059 
	C300.921448,773.990662 313.336426,774.786194 325.703003,776.057922 
	C335.081696,777.022461 344.407898,778.496887 354.597321,779.910950 
M711.057800,804.474426 
	C715.452393,803.644348 719.914795,803.052124 724.197876,801.831055 
	C725.395691,801.489563 726.695129,799.321594 726.756653,797.938477 
	C726.798218,797.004028 724.886658,795.699463 723.598572,795.083435 
	C722.659668,794.634338 721.284363,794.881531 720.151733,795.085632 
	C697.774780,799.117432 676.288208,805.717163 656.486633,817.188904 
	C654.182861,818.523560 651.823730,819.815247 653.677429,822.896667 
	C655.529907,825.975769 658.087463,825.049011 660.604553,823.592957 
	C676.130554,814.611267 692.815125,808.674316 711.057800,804.474426 
z"/>
<path fill="#4A2C1A" opacity="1.000000" stroke="none" 
	d="
M260.958710,620.940796 
	C246.280319,615.033813 231.822266,608.845764 220.485352,597.147400 
	C211.757843,588.141663 206.723892,577.433350 206.261215,565.105408 
	C205.882538,555.015747 210.871384,546.236084 215.779999,537.674622 
	C220.237610,529.899658 225.323776,522.383911 228.858643,514.203247 
	C235.119507,499.713867 236.797028,484.481964 233.438568,468.410278 
	C235.522552,463.226776 238.556717,458.581512 238.716431,453.839447 
	C239.009720,445.130676 237.569122,436.367859 236.923798,427.622223 
	C235.596313,409.631775 233.695099,391.654236 233.219452,373.639954 
	C232.857300,359.923920 234.042130,346.137939 235.066788,332.422516 
	C236.101227,318.576233 236.674088,304.552795 239.423431,291.007690 
	C244.751862,264.756287 250.321640,238.450684 257.851074,212.771454 
	C271.993378,164.538986 287.552368,116.720909 302.619873,68.761192 
	C308.938049,48.650494 323.549713,43.708836 342.057892,46.701290 
	C358.523834,49.363548 374.765625,53.412064 391.106354,56.848740 
	C402.141693,60.436829 413.282745,63.732178 424.191833,67.669968 
	C452.640411,77.938843 480.995148,88.468018 509.372803,98.932732 
	C543.050354,111.351875 576.868408,123.411629 610.318787,136.416428 
	C628.187744,143.363495 644.867004,152.820541 658.422546,166.891983 
	C672.515808,181.521637 681.945251,198.980606 689.046936,217.787735 
	C698.471252,242.745941 705.050598,268.568237 707.625000,295.026123 
	C709.776550,317.138794 710.312012,339.536407 709.695251,361.755951 
	C709.037476,385.452515 704.747925,408.861359 698.862366,431.889496 
	C698.621033,432.833771 698.024475,433.687286 697.295532,434.396973 
	C691.664246,414.473663 686.330933,394.736450 680.997559,374.999207 
	C684.276917,351.711029 684.823975,328.260406 683.812683,304.850891 
	C682.409485,272.372650 674.592896,241.716156 653.754639,215.744019 
	C634.974792,192.337372 611.116943,178.326401 580.333252,179.167511 
	C560.461548,179.710464 542.331726,186.500610 525.507568,196.969131 
	C505.226166,209.588852 488.431458,226.042984 473.188141,244.216949 
	C460.490173,259.356201 447.436859,274.222412 435.297760,289.799347 
	C418.246307,311.679840 407.690521,336.806274 402.196136,363.846680 
	C398.671967,381.190857 396.094269,398.779327 394.120239,416.373657 
	C391.532776,439.435364 389.970428,462.611786 387.945770,485.737000 
	C384.605042,523.893738 379.810455,561.824646 372.325897,599.441284 
	C368.873871,616.791016 367.388031,634.531738 364.995605,652.093140 
	C364.931366,652.564758 364.693024,653.012756 364.361237,653.981873 
	C362.818665,653.776184 361.251587,653.567200 359.390503,652.791870 
	C359.730927,648.148682 361.188232,644.001709 360.847534,640.008179 
	C359.766266,627.333008 358.042206,614.711609 356.515228,602.075684 
	C354.035767,581.557983 350.439087,561.105164 349.292816,540.514771 
	C347.946716,516.333984 349.465820,492.132446 352.755005,467.999756 
	C356.101624,443.445648 361.332062,419.414490 368.607910,395.790405 
	C379.030640,361.948639 393.326111,329.821014 411.748169,299.558167 
	C424.983673,277.815521 439.409424,256.865448 457.180725,238.599716 
	C466.630524,228.887009 477.236450,220.187683 487.966827,211.864105 
	C498.440979,203.739288 509.379242,196.074615 520.754700,189.281250 
	C539.362366,178.168854 560.412781,174.786682 581.525757,171.939774 
	C585.123535,171.454620 589.356201,172.065994 592.434570,168.094467 
	C591.223083,167.536621 590.685974,167.196411 590.099609,167.032822 
	C572.565552,162.141449 555.321350,164.253403 538.269775,169.406494 
	C516.561401,175.966919 497.161469,187.308197 478.201508,199.340729 
	C452.462036,215.675751 428.744751,234.604370 408.285217,257.304413 
	C397.522339,269.245911 386.887360,281.372803 377.119904,294.124664 
	C362.944824,312.630859 351.610443,332.931732 341.430237,353.928101 
	C327.160583,383.358917 316.578583,414.105103 308.127563,445.588135 
	C296.226715,489.923035 287.992249,535.030701 280.921143,580.357666 
	C279.579102,588.960510 275.511261,591.968872 268.756958,589.316895 
	C267.674896,588.892029 266.652588,588.314331 265.604767,587.802979 
	C251.542984,580.939941 237.491272,574.056091 223.414429,567.223999 
	C218.914261,565.039856 216.694580,566.057922 217.190933,570.882690 
	C217.666504,575.505493 218.854736,580.441711 221.152222,584.418457 
	C228.236801,596.681152 240.126831,604.121460 251.003357,612.535950 
	C254.435226,615.190979 257.646484,618.131104 260.958710,620.940796 
z"/>
<path fill="#7B7B7B" opacity="1.000000" stroke="none" 
	d="
M599.215210,305.548584 
	C601.053040,314.800964 601.811890,315.264526 611.051575,313.890991 
	C620.259399,312.522186 629.523376,311.489410 638.683594,309.863525 
	C641.813782,309.307892 643.149780,310.327301 643.671875,312.924835 
	C645.763245,323.329620 649.154663,333.724457 649.414185,344.188721 
	C649.829529,360.935913 651.398926,377.080811 656.454956,393.257843 
	C662.444702,412.422363 660.246338,431.381775 651.527710,450.022522 
	C636.710571,481.702087 622.113525,513.436218 602.248596,542.380066 
	C593.138306,555.653992 582.330261,567.338623 568.986023,576.566589 
	C541.918579,595.284546 513.669250,596.228943 484.294525,582.609436 
	C464.874817,573.605652 448.632660,560.076294 432.398132,546.524292 
	C420.129822,536.283203 407.852661,526.049072 395.790405,515.569092 
	C394.230927,514.214172 393.017151,511.323303 393.194183,509.278137 
	C395.949768,477.440918 398.577667,445.583679 402.068207,413.822632 
	C403.934814,396.837982 407.382690,380.026642 410.149475,363.142426 
	C410.304352,362.197296 410.756592,361.300903 411.304535,359.696198 
	C416.568665,364.382111 421.588501,368.635406 426.355164,373.155579 
	C430.912354,377.477112 435.817719,379.813263 442.419647,379.426880 
	C455.379211,378.668396 468.387817,378.774689 481.358734,378.157196 
	C483.441040,378.058105 486.159027,376.571411 487.350098,374.865326 
	C495.603363,363.043213 495.369659,363.180756 483.132904,355.688843 
	C470.110992,347.716217 455.989075,344.271729 440.898102,343.858093 
	C432.922028,343.639496 424.955750,343.062653 416.141632,342.603607 
	C417.492615,338.962067 418.444000,335.521790 419.996796,332.378601 
	C424.413055,323.439392 429.111359,314.639984 433.616852,305.744110 
	C434.939362,303.132935 436.520966,302.697418 439.238708,303.861511 
	C451.077393,308.932373 463.533112,310.340057 476.334778,310.235107 
	C481.687195,310.191193 484.976135,308.781982 485.739685,303.163971 
	C485.936829,301.713715 486.651794,300.333832 487.153412,298.849213 
	C501.651642,306.778778 517.156250,311.296082 533.213623,313.929077 
	C549.903992,316.665955 566.645691,316.753326 583.434204,314.346985 
	C587.658875,313.741455 588.693115,311.869446 588.401428,308.067963 
	C587.488892,296.173706 588.750488,284.499023 593.177795,272.933472 
	C595.151367,283.668457 597.124939,294.403442 599.215210,305.548584 
M612.164368,351.618378 
	C601.944824,352.709045 591.687073,353.541504 581.529114,355.047455 
	C578.476074,355.500061 575.215820,357.294739 572.897461,359.405029 
	C567.754150,364.086639 566.934753,370.569519 566.755920,377.220703 
	C566.651733,381.094330 568.392578,382.954529 571.971985,382.875916 
	C584.167847,382.608093 595.551208,385.864563 606.810730,390.145233 
	C616.594421,393.864838 622.908081,389.518311 622.988831,378.948792 
	C623.040283,372.210114 622.220032,365.464783 621.765503,358.329010 
	C622.376709,358.147614 623.693726,358.106689 624.498535,357.443817 
	C626.091248,356.131866 627.400879,354.476196 628.827515,352.962646 
	C626.833374,351.939758 624.873779,350.160004 622.837219,350.067169 
	C619.589722,349.919037 616.290955,350.893341 612.164368,351.618378 
M577.194031,472.661285 
	C579.716492,467.788513 582.310974,462.951385 584.745178,458.034973 
	C588.817017,449.811096 587.604492,442.072021 581.660767,435.352539 
	C578.161194,431.396271 574.052979,427.922913 569.936584,424.579407 
	C561.773743,417.949188 557.421692,409.638092 557.834717,399.029968 
	C557.941406,396.290771 557.600403,393.679962 554.274109,393.611481 
	C550.764160,393.539246 550.710449,396.487061 550.638672,399.019501 
	C550.297180,411.074280 554.741638,421.019562 563.777710,429.007690 
	C568.366394,433.064209 573.029602,437.087677 577.186035,441.565216 
	C580.342468,444.965515 580.905396,449.378815 578.793579,453.679840 
	C575.497986,460.392120 572.068420,467.041626 568.554932,473.642822 
	C566.614014,477.289459 563.453674,478.243378 559.656738,476.750793 
	C557.963440,476.085114 556.359436,475.168427 554.769470,474.269287 
	C552.482483,472.975922 549.937256,472.431946 549.025330,475.334290 
	C548.584106,476.738525 549.790039,479.507263 551.115601,480.485626 
	C561.666748,488.273102 570.504700,485.727173 577.194031,472.661285 
M495.133423,521.223938 
	C518.827393,528.632629 542.899536,531.460693 567.579407,527.361389 
	C570.981995,526.796204 573.828308,527.367554 574.450623,531.794617 
	C574.588867,532.778564 576.926941,534.216919 578.089722,534.078796 
	C579.256470,533.940186 581.211609,531.958862 581.084106,531.021362 
	C580.725891,528.386841 580.100525,525.323303 578.439270,523.430542 
	C575.215088,519.757019 570.563477,519.706970 565.914001,520.296387 
	C560.469604,520.986572 555.005310,521.637390 549.529419,521.938904 
	C532.012634,522.903137 515.117004,519.425476 498.378784,514.672546 
	C490.271240,512.370361 481.943817,511.546600 473.842102,514.596863 
	C472.428131,515.129211 471.795837,517.737610 470.802490,519.387207 
	C472.557037,519.991943 474.298401,521.066528 476.068481,521.116150 
	C482.140259,521.286316 488.222107,521.097290 495.133423,521.223938 
M489.851562,450.058472 
	C485.628662,451.482513 483.228912,454.336243 483.057373,458.863312 
	C482.592072,471.141937 496.352448,483.256622 508.453552,481.009155 
	C509.784027,480.762085 511.740082,478.808624 511.712250,477.688660 
	C511.681793,476.464447 509.841827,475.033051 508.482605,474.186340 
	C507.635010,473.658325 506.212219,474.106842 505.056213,474.011871 
	C497.966644,473.429565 492.315765,468.347229 490.657074,461.516235 
	C489.945923,458.587585 490.747528,457.160248 493.614929,456.477448 
	C497.644287,455.517883 501.755066,454.682861 505.568512,453.143921 
	C507.039368,452.550323 507.791046,450.174652 508.870361,448.610870 
	C507.110687,447.894745 505.222534,446.365021 503.616058,446.618774 
	C499.220184,447.313110 494.942932,448.758362 489.851562,450.058472 
M497.729156,331.031830 
	C498.210541,332.946838 498.702271,334.859283 499.170807,336.777435 
	C499.798981,339.348846 500.851105,342.137390 503.954498,340.948669 
	C505.454102,340.374268 507.134369,337.424255 506.941132,335.757599 
	C505.971375,327.393158 501.690765,320.770264 494.337372,316.615448 
	C492.923065,315.816315 490.332489,317.098969 488.284546,317.421234 
	C488.932587,319.262054 489.182312,321.410614 490.315063,322.876953 
	C492.402283,325.578888 495.008301,327.880035 497.729156,331.031830 
M568.642395,339.977356 
	C568.770325,336.200012 568.802429,332.416138 569.057617,328.647430 
	C569.250793,325.795532 569.105408,322.594360 565.752869,322.694672 
	C564.117554,322.743622 561.531006,325.722046 561.203369,327.680389 
	C560.475403,332.031677 560.700867,336.585602 560.919495,341.038177 
	C561.086975,344.449585 560.227417,349.465179 565.629333,349.121796 
	C571.009094,348.779724 568.726257,344.029541 568.642395,339.977356 
M536.833069,475.032990 
	C536.389465,473.447937 536.441711,471.296356 535.404968,470.388885 
	C532.778931,468.090454 523.926025,468.545135 521.210693,470.900330 
	C520.356873,471.640961 519.619995,473.175476 519.762573,474.219086 
	C519.903259,475.248138 521.256897,476.947388 522.024109,476.918335 
	C526.812439,476.737335 531.585571,476.154114 536.833069,475.032990 
z"/>
<path fill="#26170F" opacity="1.000000" stroke="none" 
	d="
M261.303162,621.107544 
	C257.646484,618.131104 254.435226,615.190979 251.003357,612.535950 
	C240.126831,604.121460 228.236801,596.681152 221.152222,584.418457 
	C218.854736,580.441711 217.666504,575.505493 217.190933,570.882690 
	C216.694580,566.057922 218.914261,565.039856 223.414429,567.223999 
	C237.491272,574.056091 251.542984,580.939941 265.604767,587.802979 
	C266.652588,588.314331 267.674896,588.892029 268.756958,589.316895 
	C275.511261,591.968872 279.579102,588.960510 280.921143,580.357666 
	C287.992249,535.030701 296.226715,489.923035 308.127563,445.588135 
	C316.578583,414.105103 327.160583,383.358917 341.430237,353.928101 
	C351.610443,332.931732 362.944824,312.630859 377.119904,294.124664 
	C386.887360,281.372803 397.522339,269.245911 408.285217,257.304413 
	C428.744751,234.604370 452.462036,215.675751 478.201508,199.340729 
	C497.161469,187.308197 516.561401,175.966919 538.269775,169.406494 
	C555.321350,164.253403 572.565552,162.141449 590.099609,167.032822 
	C590.685974,167.196411 591.223083,167.536621 592.434570,168.094467 
	C589.356201,172.065994 585.123535,171.454620 581.525757,171.939774 
	C560.412781,174.786682 539.362366,178.168854 520.754700,189.281250 
	C509.379242,196.074615 498.440979,203.739288 487.966827,211.864105 
	C477.236450,220.187683 466.630524,228.887009 457.180725,238.599716 
	C439.409424,256.865448 424.983673,277.815521 411.748169,299.558167 
	C393.326111,329.821014 379.030640,361.948639 368.607910,395.790405 
	C361.332062,419.414490 356.101624,443.445648 352.755005,467.999756 
	C349.465820,492.132446 347.946716,516.333984 349.292816,540.514771 
	C350.439087,561.105164 354.035767,581.557983 356.515228,602.075684 
	C358.042206,614.711609 359.766266,627.333008 360.847534,640.008179 
	C361.188232,644.001709 359.730927,648.148682 359.035828,652.623901 
	C352.106659,651.228394 345.106110,649.827332 338.393127,647.570801 
	C312.761047,638.954651 287.221619,630.063049 261.303162,621.107544 
z"/>
<path fill="#180F0B" opacity="1.000000" stroke="none" 
	d="
M680.643372,375.033936 
	C686.330933,394.736450 691.664246,414.473663 696.998779,434.610382 
	C694.773804,443.475983 693.287231,452.226654 690.163269,460.347443 
	C684.145203,475.991791 677.840332,491.594360 670.449219,506.621429 
	C663.947815,519.839539 655.734741,532.210388 648.401062,545.026062 
	C641.795837,556.568542 637.922180,569.105164 637.162598,582.301941 
	C636.566467,592.658142 640.884521,601.938660 645.477783,611.121338 
	C648.145874,616.455383 649.838562,622.481079 650.856506,628.387451 
	C652.276917,636.628540 647.066284,642.379822 641.124756,646.793396 
	C629.923279,655.114197 616.797913,656.070923 603.489868,654.609863 
	C583.577759,652.423767 563.670105,651.377197 544.415344,657.915161 
	C531.635803,662.254517 519.335327,668.004700 506.371277,673.307007 
	C504.383423,670.204651 501.637115,665.918640 498.472015,660.979065 
	C505.556183,656.853455 512.477600,653.042847 519.168762,648.863586 
	C525.761658,644.745850 532.534424,640.752258 538.485413,635.809875 
	C547.220276,628.555359 547.974854,618.413452 546.430298,607.957275 
	C545.901245,604.375610 543.511414,600.287842 544.626953,597.490112 
	C545.526184,595.234863 550.397339,594.515442 553.547058,593.213318 
	C576.086670,583.894348 593.280396,568.040894 606.986389,548.369751 
	C627.024658,519.610535 642.340759,488.224792 656.313660,456.196838 
	C660.205811,447.275391 664.156250,438.021606 665.695801,428.533417 
	C667.201782,419.252686 666.352722,409.398651 665.254456,399.945282 
	C664.325989,391.953033 661.286682,384.229126 659.696777,376.283386 
	C658.403381,369.819855 657.063904,363.191132 657.164001,356.657410 
	C657.415344,340.255829 656.092468,324.174286 650.432312,308.753815 
	C651.052673,308.394989 651.319580,308.112854 651.602722,308.095398 
	C660.856689,307.525726 661.955566,306.893585 661.858093,295.903412 
	C661.708069,278.983795 660.696716,262.071930 660.062622,245.156342 
	C660.013000,243.832214 660.056091,242.504608 660.818970,240.853912 
	C662.513550,244.604095 664.476685,248.258347 665.856384,252.121002 
	C671.973267,269.246460 675.699890,286.844147 676.037903,305.105713 
	C676.185303,313.067535 677.186890,321.043365 676.878845,328.977081 
	C676.358887,342.370544 675.201355,355.743378 674.107910,369.108246 
	C673.728027,373.752350 675.650330,375.866241 680.643372,375.033936 
z"/>
<path fill="#898989" opacity="1.000000" stroke="none" 
	d="
M405.944275,534.774658 
	C413.174957,540.562012 420.485321,546.253052 427.620300,552.156128 
	C444.046448,565.746094 460.416321,579.392700 479.899231,588.595093 
	C497.428955,596.874878 515.696228,600.922729 535.137817,598.362549 
	C543.681152,611.841187 540.107849,627.914490 526.666260,635.810974 
	C515.764099,642.215759 504.750824,648.431396 493.819214,654.712219 
	C489.596313,651.208191 485.730804,647.522583 481.402496,644.499451 
	C468.765472,635.672729 454.822754,635.021179 440.275085,638.422119 
	C427.487000,641.411621 414.649292,644.188782 401.423920,646.598999 
	C396.111511,624.129517 393.994690,601.844482 397.066284,579.481812 
	C399.130096,564.456421 402.924286,549.668701 405.944275,534.774658 
M500.194794,624.097412 
	C494.611511,618.356384 489.419708,612.452759 488.122101,604.026672 
	C487.947845,602.894958 485.239441,602.153503 483.704529,601.231323 
	C482.873077,603.023804 481.108612,604.965271 481.366943,606.583801 
	C482.694061,614.897522 486.751312,621.867249 493.313202,627.212524 
	C496.895081,630.130310 498.704773,629.412964 500.194794,624.097412 
z"/>
<path fill="#130E0B" opacity="1.000000" stroke="none" 
	d="
M488.765747,237.813705 
	C504.604431,221.293991 521.248901,206.307892 541.883301,196.644058 
	C556.457458,189.818451 571.715393,185.622574 589.062988,187.341492 
	C586.949768,192.794434 584.972046,197.929916 582.970825,203.056229 
	C571.757141,231.781143 559.096558,260.008942 552.768188,290.416077 
	C551.929443,294.446045 551.418518,298.560089 551.017822,302.660828 
	C550.623962,306.691864 549.001770,308.684143 544.632751,307.963562 
	C529.265564,305.429169 514.046936,302.575531 499.502014,296.537384 
	C494.751587,294.565308 494.814880,291.896942 495.139282,288.100586 
	C495.829041,280.028564 496.628387,271.951172 496.822845,263.862518 
	C496.868408,261.966003 494.686371,260.015961 493.529236,258.090515 
	C492.017731,259.720734 489.693329,261.110352 489.127930,263.020569 
	C485.700104,274.602600 482.592224,286.282318 479.566101,297.978210 
	C478.733734,301.195221 476.987793,301.997253 473.861328,302.084015 
	C463.983215,302.358093 454.319061,301.449066 444.962219,298.114075 
	C444.027740,297.781006 443.104523,297.409027 442.200104,297.001770 
	C441.757690,296.802551 441.370514,296.480682 440.320648,295.802277 
	C444.351654,290.508667 447.883270,285.369720 451.920349,280.664459 
	C463.466614,267.207153 475.222931,253.930099 486.876190,240.564316 
	C487.524414,239.820847 487.987640,238.916031 488.765747,237.813705 
z"/>
<path fill="#26170F" opacity="1.000000" stroke="none" 
	d="
M391.005798,56.510670 
	C374.765625,53.412064 358.523834,49.363548 342.057892,46.701290 
	C323.549713,43.708836 308.938049,48.650494 302.619873,68.761192 
	C287.552368,116.720909 271.993378,164.538986 257.851074,212.771454 
	C250.321640,238.450684 244.751862,264.756287 239.423431,291.007690 
	C236.674088,304.552795 236.101227,318.576233 235.066788,332.422516 
	C234.042130,346.137939 232.857300,359.923920 233.219452,373.639954 
	C233.695099,391.654236 235.596313,409.631775 236.923798,427.622223 
	C237.569122,436.367859 239.009720,445.130676 238.716431,453.839447 
	C238.556717,458.581512 235.522552,463.226776 233.451080,467.999146 
	C229.018143,452.846466 226.162018,437.419861 225.980621,421.582062 
	C225.649200,392.644745 225.597198,363.700531 224.887390,334.772461 
	C224.371078,313.730133 222.662704,292.717896 222.092072,271.675781 
	C221.673615,256.245087 225.614700,241.387222 231.056259,227.108261 
	C240.923782,201.215302 251.780106,175.695053 261.415039,149.719284 
	C266.187866,136.851837 268.318665,123.230141 269.150513,109.369682 
	C270.239868,91.218483 272.231049,73.118874 273.979034,55.011044 
	C274.629089,48.277294 275.070892,41.429504 276.694305,34.904060 
	C279.669983,22.943041 288.370697,19.206936 299.349518,22.883354 
	C326.732544,32.052967 353.790680,42.194374 380.959229,52.001060 
	C384.336456,53.220093 387.592834,54.773907 391.005798,56.510670 
z"/>
<path fill="#27180F" opacity="1.000000" stroke="none" 
	d="
M240.736755,620.700134 
	C231.281906,627.019470 221.367462,632.760254 211.886856,639.145264 
	C191.012085,653.204102 171.777512,669.328430 154.779678,687.881409 
	C133.034546,711.616089 115.148651,738.102478 100.105461,766.588562 
	C81.124702,802.531067 66.306213,840.234192 51.794102,878.097961 
	C46.683800,891.431274 41.027927,904.555237 35.643280,917.783875 
	C35.336662,918.537170 35.231316,919.372498 35.053200,920.538147 
	C33.243137,920.932251 31.412169,920.977905 29.581150,920.979858 
	C21.383108,920.988342 21.335697,920.979980 22.028971,912.626526 
	C25.431606,871.627075 35.765541,832.395142 52.116535,794.693542 
	C63.590725,768.236816 77.611221,743.269958 95.308525,720.435791 
	C109.666199,701.910583 126.836578,686.369690 146.014206,673.028503 
	C164.539413,660.141052 183.169434,647.402039 201.857956,634.752380 
	C212.143021,627.790771 223.601761,623.365479 235.592865,620.329529 
	C237.115173,619.944031 238.841934,620.366028 240.736755,620.700134 
z"/>
<path fill="#190F0B" opacity="1.000000" stroke="none" 
	d="
M432.795135,648.107056 
	C442.645630,645.143494 452.599640,642.737610 462.972626,644.529114 
	C475.629700,646.715210 483.926971,655.496155 491.643402,664.647522 
	C495.552612,669.283691 498.469391,674.807129 501.489899,680.125366 
	C503.670624,683.964966 505.796875,685.055359 509.725983,682.212585 
	C520.836365,674.173950 533.178040,668.599915 546.331848,664.801453 
	C547.588745,664.438538 548.900208,664.264771 550.569702,664.379028 
	C546.578674,677.480774 542.204346,690.206665 537.494629,702.986694 
	C534.008240,707.242310 530.835999,711.428101 527.711853,715.649475 
	C524.192627,720.404724 520.716797,725.191956 516.889832,730.419067 
	C508.206238,724.178101 500.199158,718.347961 492.108582,712.636047 
	C487.039612,709.057434 481.844971,705.656799 476.435730,701.987549 
	C461.708191,683.901550 447.251678,666.004272 432.795135,648.107056 
z"/>
<path fill="#130E0B" opacity="1.000000" stroke="none" 
	d="
M602.970337,283.141357 
	C601.382996,274.937073 599.927307,267.140747 598.216858,259.400726 
	C596.971130,253.763885 595.857300,253.266068 589.362915,255.387436 
	C590.528076,232.910034 591.673340,210.814804 592.864319,187.838547 
	C596.141052,188.246490 598.871765,188.040985 601.140503,188.967209 
	C609.223694,192.267151 617.229431,195.789642 625.063660,199.636902 
	C626.518494,200.351364 627.657776,202.879013 627.898804,204.707443 
	C629.646179,217.962936 631.230347,231.242493 632.658630,244.536728 
	C633.911804,256.201019 635.566650,267.882446 635.773621,279.578796 
	C635.924927,288.130493 634.272461,296.838287 625.247925,302.413483 
	C622.678955,298.269867 620.229309,294.318604 616.943665,289.018921 
	C616.124573,293.789551 615.641174,297.108032 614.963318,300.386322 
	C614.462585,302.807709 614.903198,305.715729 610.913940,306.089417 
	C606.777100,306.476929 606.760071,303.484650 606.249146,301.119568 
	C604.993713,295.307526 604.057434,289.426605 602.970337,283.141357 
z"/>
<path fill="#190F0B" opacity="1.000000" stroke="none" 
	d="
M450.553558,679.943665 
	C448.010620,679.292297 445.461487,678.664246 442.925812,677.985718 
	C428.905975,674.234070 414.957642,676.027771 401.013550,678.493164 
	C384.164185,681.472168 367.037598,685.412354 350.646973,677.806091 
	C339.725494,672.737732 329.605530,665.884277 319.323273,659.512756 
	C308.884338,653.044067 298.686615,646.186279 288.200439,639.208252 
	C292.195068,639.879089 296.493286,640.486816 300.528595,641.864441 
	C316.523560,647.325195 332.346191,653.302124 348.405975,658.558228 
	C363.131042,663.377502 377.783997,660.788208 392.402985,657.107300 
	C403.260803,654.373474 414.293427,652.333801 425.974670,650.135376 
	C434.651947,660.171753 442.602753,670.057739 450.553558,679.943665 
z"/>
<path fill="#272727" opacity="1.000000" stroke="none" 
	d="
M405.808502,534.486450 
	C402.924286,549.668701 399.130096,564.456421 397.066284,579.481812 
	C393.994690,601.844482 396.111511,624.129517 401.016418,646.540955 
	C392.005920,649.192749 382.993347,651.441833 372.734924,654.001892 
	C375.784576,608.966858 388.341339,566.941101 391.649139,523.554932 
	C392.153564,523.409302 392.658020,523.263611 393.162445,523.117920 
	C397.332520,526.811401 401.502625,530.504822 405.808502,534.486450 
z"/>
<path fill="#190F0B" opacity="1.000000" stroke="none" 
	d="
M657.782715,641.695312 
	C648.518494,660.617981 632.648071,670.955383 612.936096,675.954895 
	C596.244324,680.188477 579.390015,683.783325 562.710327,688.061340 
	C557.782104,689.325378 553.202820,691.950012 548.148376,693.578857 
	C551.147461,682.843994 554.461792,672.481384 557.776123,662.118835 
	C568.878174,661.746826 579.979065,661.135864 591.082703,661.079041 
	C599.856262,661.034119 608.631104,661.862488 617.409180,661.961304 
	C632.716370,662.133667 645.015076,656.038757 654.214478,643.710754 
	C654.975342,642.691162 656.442871,642.198914 657.782715,641.695312 
z"/>
<path fill="#F29106" opacity="1.000000" stroke="none" 
	d="
M450.796570,680.132812 
	C442.602753,670.057739 434.651947,660.171753 426.409607,650.130127 
	C428.095154,649.330505 430.072235,648.686584 432.422241,648.074829 
	C447.251678,666.004272 461.708191,683.901550 476.544556,702.312561 
	C483.614532,711.110474 490.367981,719.344482 496.975861,727.693726 
	C502.835205,735.097107 508.532745,742.628479 513.917847,750.215332 
	C511.677917,750.604553 509.821838,750.881958 507.965759,751.159302 
	C494.811493,734.768921 481.661713,718.375000 468.500885,701.989868 
	C462.692017,694.757935 456.860718,687.544006 450.796570,680.132812 
z"/>
<path fill="#F19006" opacity="1.000000" stroke="none" 
	d="
M557.415894,662.152771 
	C554.461792,672.481384 551.147461,682.843994 547.767822,693.594971 
	C541.698547,711.934875 535.694641,729.886353 529.284424,748.346802 
	C526.908264,749.238953 524.938354,749.622131 522.952759,749.614136 
	C523.459656,747.480591 523.949890,745.727661 524.510010,743.997375 
	C528.942566,730.306641 533.388306,716.620300 537.829956,702.932556 
	C542.204346,690.206665 546.578674,677.480774 550.973206,664.377197 
	C553.014160,663.395264 555.034912,662.790955 557.415894,662.152771 
z"/>
<path fill="#F6F6F6" opacity="1.000000" stroke="none" 
	d="
M443.853271,355.031982 
	C443.033081,360.690918 442.344055,365.968018 441.518524,372.290710 
	C439.617523,371.646423 436.138611,371.356995 433.892670,369.541870 
	C426.719666,363.744934 420.004242,357.381744 413.566650,350.071625 
	C423.883728,350.590851 434.200806,351.110107 445.155701,351.661469 
	C444.630463,353.001709 444.307434,353.825928 443.853271,355.031982 
z"/>
<path fill="#F6F6F6" opacity="1.000000" stroke="none" 
	d="
M484.012756,366.028870 
	C482.163605,371.400848 478.403229,371.696014 473.824677,370.679596 
	C474.952972,367.443909 476.027893,364.361267 477.318207,360.660980 
	C479.759613,362.461243 481.926758,364.059265 484.012756,366.028870 
z"/>
<path fill="#060605" opacity="1.000000" stroke="none" 
	d="
M522.968445,750.005310 
	C524.938354,749.622131 526.908264,749.238953 529.227295,748.722534 
	C529.902527,748.648010 530.242554,748.797913 530.552673,748.750793 
	C532.823425,748.405823 535.088196,748.021362 537.591797,747.610474 
	C538.832703,743.272644 539.553345,738.711853 541.504944,734.758667 
	C542.540833,732.660339 545.552612,731.230957 547.973999,730.227051 
	C549.690063,729.515625 551.911560,730.038086 553.906738,729.983093 
	C563.563110,729.717102 563.485168,729.517944 564.905029,740.177307 
	C565.515564,744.760742 565.689514,749.402344 566.060974,754.007446 
	C566.481140,754.054138 567.002014,754.182190 567.034058,754.105591 
	C571.312561,743.887451 581.333191,744.267151 588.674744,745.735107 
	C595.286072,747.057068 599.654175,744.886780 604.942444,743.167480 
	C620.621033,738.070129 635.670227,748.139099 638.153931,764.532532 
	C639.735962,774.974976 637.847107,783.941528 629.930542,791.847839 
	C624.489075,793.340454 619.756592,795.616394 614.964966,795.748718 
	C609.531982,795.898682 604.046021,794.128540 598.116516,793.113342 
	C592.252136,799.841736 577.276550,799.073303 569.815979,791.328003 
	C568.598145,793.751953 567.311890,796.312195 566.025574,798.872437 
	C565.283813,798.909607 564.542053,798.946716 562.986572,798.999512 
	C556.873596,798.489624 551.164307,802.731873 546.492554,797.338989 
	C544.809875,798.694946 543.415955,799.818237 542.022034,800.941528 
	C541.841736,800.937866 541.661438,800.934204 540.765137,800.959229 
	C535.177246,801.261353 529.973267,800.535034 525.503418,802.019409 
	C516.594910,804.977722 508.550110,804.409485 501.261139,798.664246 
	C497.868347,795.990051 495.246307,792.338074 492.604523,789.485229 
	C491.512299,792.413696 490.271545,795.740356 489.030762,799.067017 
	C487.768677,800.840759 486.506592,802.614563 484.695129,804.697144 
	C478.004486,807.227722 471.256134,808.684387 466.490448,803.553772 
	C462.299622,799.042114 459.928864,792.839844 457.216705,788.178894 
	C456.636169,791.031677 455.822968,795.027588 455.009827,799.023438 
	C453.234283,801.585510 451.458740,804.147522 449.046600,807.003113 
	C438.836121,813.561401 427.246429,807.664734 424.608185,797.381897 
	C422.927765,790.832336 420.864075,784.375122 418.803223,777.930542 
	C416.351044,770.262451 413.717743,762.652283 411.162933,755.016968 
	C410.690216,746.711121 411.037964,746.278137 419.381805,744.736511 
	C419.706940,744.676514 420.011597,744.480225 420.336151,744.446289 
	C432.747040,743.148254 433.189636,743.833740 436.006989,754.157715 
	C436.397491,755.588623 436.881836,756.993958 437.578827,759.234253 
	C438.615936,757.637085 439.687073,756.683655 439.881866,755.576111 
	C441.297424,747.527344 445.343781,741.972473 453.905121,741.076416 
	C461.756165,740.254700 465.848877,743.428040 471.165588,754.461548 
	C472.345398,750.984314 473.350250,748.502258 474.018799,745.932800 
	C474.881409,742.617493 476.172546,740.060425 480.170197,739.901855 
	C483.974609,739.750916 487.765472,739.081238 491.565704,739.049805 
	C495.955566,739.013489 498.036041,741.830078 497.433411,746.178223 
	C496.844574,750.427002 496.402679,754.696167 495.857544,759.282166 
	C500.008240,756.591125 503.788666,754.140076 507.767426,751.424194 
	C509.821838,750.881958 511.677917,750.604553 514.343384,750.206665 
	C517.757996,750.059143 520.363220,750.032227 522.968445,750.005310 
M471.000397,775.482727 
	C468.883850,768.844604 466.846710,762.179871 464.627960,755.576111 
	C462.511444,749.276794 459.371277,746.747864 454.499084,747.077148 
	C449.636505,747.405884 446.935852,750.419617 445.909149,757.010864 
	C444.164001,768.214722 442.528137,779.435608 440.846344,790.649292 
	C440.585052,790.670532 440.323792,790.691772 440.062500,790.712952 
	C436.221039,777.232666 432.379608,763.752319 428.412811,749.832214 
	C424.548859,750.224426 420.890930,750.595764 417.067291,750.983887 
	C421.532104,765.952209 425.758881,780.270447 430.084412,794.558838 
	C432.108093,801.243469 435.521698,803.947266 440.922089,803.471375 
	C446.150238,803.010681 449.180542,799.588196 450.197723,792.875732 
	C451.839752,782.039307 453.440582,771.196716 455.058777,760.356689 
	C459.329926,771.229309 462.719757,782.135315 466.273132,792.987732 
	C468.031738,798.358582 471.835846,801.105103 476.491089,800.794373 
	C481.315430,800.472412 484.985443,797.275818 485.714020,791.833008 
	C487.781281,776.389404 489.568817,760.908386 491.536194,744.873901 
	C487.589233,745.266968 484.016083,745.622864 480.225433,746.000366 
	C478.707062,759.914734 477.210846,773.626160 475.714600,787.337646 
	C475.461334,787.363770 475.208069,787.389954 474.954803,787.416077 
	C473.686066,783.699829 472.417297,779.983521 471.000397,775.482727 
M522.947205,756.382385 
	C518.229248,756.886597 513.163391,756.470520 508.868561,758.094116 
	C500.873749,761.116272 496.628845,767.748108 496.513794,776.315125 
	C496.398346,784.908386 499.838348,792.015564 507.937103,795.803467 
	C515.410461,799.298889 522.489075,798.245239 528.611877,792.399719 
	C528.813232,792.207458 529.226257,792.237000 529.547791,792.173096 
	C529.801697,793.240417 530.055542,794.307739 530.337402,795.492615 
	C533.821594,795.214966 537.076294,794.955688 540.694824,794.667358 
	C539.580627,781.026428 538.493835,767.720886 537.387573,754.177185 
	C535.421326,754.371887 534.093506,754.390747 532.815369,754.652466 
	C529.793274,755.271057 526.794739,756.005005 522.947205,756.382385 
M570.031616,782.427490 
	C575.354370,789.671570 581.805847,793.767395 591.515381,789.801025 
	C585.728516,783.763733 580.049500,777.838989 574.417664,771.963440 
	C579.425110,764.878357 584.085388,758.284546 588.527222,751.999695 
	C578.736389,749.440857 572.883118,754.089050 568.858459,762.149414 
	C568.124512,763.619446 567.149292,765.048889 565.994507,766.206909 
	C564.800537,767.404236 563.252136,768.248108 561.153687,769.751953 
	C560.116272,757.578857 559.191589,746.728149 558.246399,735.637024 
	C554.198425,735.898315 550.780151,736.118958 547.070190,736.358398 
	C548.650696,755.757385 550.192688,774.683838 551.745605,793.743835 
	C556.057739,793.314453 559.448364,792.976868 562.828491,792.640259 
	C562.443115,787.253296 562.090332,782.321045 561.742310,777.456787 
	C566.503479,775.938599 567.147644,780.302490 570.031616,782.427490 
M617.432556,779.261414 
	C609.913940,780.945129 605.763611,778.832886 603.903748,772.043335 
	C613.348999,771.251160 622.728210,770.464600 632.078430,769.680420 
	C632.526855,757.947021 626.059998,749.523499 615.705872,748.135376 
	C604.905090,746.687439 595.039368,753.446533 592.933228,763.737061 
	C590.584412,775.213501 596.267700,785.697876 606.515503,788.793091 
	C617.782654,792.196106 628.411499,787.480652 632.430908,777.063232 
	C629.725403,775.940186 627.013367,774.814453 624.778870,773.886902 
	C622.283325,775.842834 620.236389,777.447083 617.432556,779.261414 
z"/>
<path fill="#030201" opacity="1.000000" stroke="none" 
	d="
M354.177399,779.827698 
	C344.407898,778.496887 335.081696,777.022461 325.703003,776.057922 
	C313.336426,774.786194 300.921448,773.990662 288.544495,772.810059 
	C285.915863,772.559326 282.749023,771.722778 283.328827,768.140259 
	C283.888550,764.681885 287.011627,764.828308 289.739960,765.078796 
	C307.561646,766.715393 325.449646,767.852478 343.183350,770.168274 
	C365.901611,773.134949 387.509094,779.381470 404.050201,796.708252 
	C405.541229,798.270081 405.877869,800.934021 406.750580,803.086121 
	C404.679871,803.726318 402.613251,804.906921 400.537872,804.922485 
	C381.546844,805.065491 362.545624,804.645325 343.564484,805.101868 
	C322.342590,805.612305 301.170380,807.164001 280.341919,811.710083 
	C279.855652,811.816223 279.283264,812.082397 278.882080,811.929688 
	C276.937836,811.189758 275.038452,810.331970 273.123169,809.515991 
	C274.497467,807.945862 275.588745,805.567993 277.302795,804.967468 
	C281.336090,803.554199 285.626404,802.544128 289.884003,802.159180 
	C307.217468,800.592041 324.558380,798.943542 341.933868,798.053040 
	C357.870148,797.236267 373.854401,797.356812 389.817383,797.056458 
	C390.586975,797.041992 391.355164,796.950134 393.368378,796.803955 
	C381.121826,787.622009 368.404175,782.543091 354.177399,779.827698 
z"/>
<path fill="#030201" opacity="1.000000" stroke="none" 
	d="
M710.661011,804.616089 
	C692.815125,808.674316 676.130554,814.611267 660.604553,823.592957 
	C658.087463,825.049011 655.529907,825.975769 653.677429,822.896667 
	C651.823730,819.815247 654.182861,818.523560 656.486633,817.188904 
	C676.288208,805.717163 697.774780,799.117432 720.151733,795.085632 
	C721.284363,794.881531 722.659668,794.634338 723.598572,795.083435 
	C724.886658,795.699463 726.798218,797.004028 726.756653,797.938477 
	C726.695129,799.321594 725.395691,801.489563 724.197876,801.831055 
	C719.914795,803.052124 715.452393,803.644348 710.661011,804.616089 
z"/>
<path fill="#190F0B" opacity="1.000000" stroke="none" 
	d="
M410.894287,755.280396 
	C413.717743,762.652283 416.351044,770.262451 418.803223,777.930542 
	C420.864075,784.375122 422.927765,790.832336 424.608185,797.381897 
	C427.246429,807.664734 438.836121,813.561401 448.766235,807.181274 
	C447.723663,813.358215 442.558594,817.456787 435.476013,817.894531 
	C430.324127,818.212952 423.735260,813.680847 421.924530,807.973083 
	C418.122040,795.987122 414.621674,783.905273 410.978729,771.868469 
	C410.115021,769.014648 408.965759,766.229187 408.334717,763.328064 
	C407.707733,760.445740 407.012604,757.289856 410.894287,755.280396 
z"/>
<path fill="#190F0B" opacity="1.000000" stroke="none" 
	d="
M566.159973,799.194336 
	C567.311890,796.312195 568.598145,793.751953 569.815979,791.328003 
	C577.276550,799.073303 592.252136,799.841736 598.116516,793.113342 
	C604.046021,794.128540 609.531982,795.898682 614.964966,795.748718 
	C619.756592,795.616394 624.489075,793.340454 629.635254,792.012573 
	C626.249023,800.124084 614.464050,805.743408 605.303406,803.533142 
	C601.159973,802.533264 597.155762,800.956421 593.039734,799.625610 
	C588.977539,807.146851 573.261353,807.216797 566.159973,799.194336 
z"/>
<path fill="#190F0B" opacity="1.000000" stroke="none" 
	d="
M489.366089,799.088867 
	C490.271545,795.740356 491.512299,792.413696 492.604523,789.485229 
	C495.246307,792.338074 497.868347,795.990051 501.261139,798.664246 
	C508.550110,804.409485 516.594910,804.977722 525.503418,802.019409 
	C529.973267,800.535034 535.177246,801.261353 540.495361,800.978882 
	C541.443970,805.628357 539.338806,808.103088 534.697083,808.606140 
	C527.694885,809.364990 520.702698,810.216675 513.703979,811.008057 
	C504.660553,812.030701 497.638275,808.428833 492.046387,801.532471 
	C491.341400,800.663086 490.486694,799.914978 489.366089,799.088867 
z"/>
<path fill="#190F0B" opacity="1.000000" stroke="none" 
	d="
M455.290955,799.236450 
	C455.822968,795.027588 456.636169,791.031677 457.216705,788.178894 
	C459.928864,792.839844 462.299622,799.042114 466.490448,803.553772 
	C471.256134,808.684387 478.004486,807.227722 484.535645,804.987854 
	C483.047546,810.949951 478.374176,814.487427 471.739899,814.950562 
	C466.505035,815.315979 460.187469,810.930908 457.590118,805.022705 
	C456.796753,803.218079 456.238220,801.310120 455.290955,799.236450 
z"/>
<path fill="#190F0B" opacity="1.000000" stroke="none" 
	d="
M542.015015,801.333496 
	C543.415955,799.818237 544.809875,798.694946 546.492554,797.338989 
	C551.164307,802.731873 556.873596,798.489624 562.616272,799.027161 
	C562.807068,805.546448 561.436096,806.921875 555.156128,807.002747 
	C553.171814,807.028259 551.127380,806.798340 549.216064,807.194763 
	C544.564575,808.159424 542.284058,806.352051 542.015015,801.333496 
z"/>
<path fill="#040404" opacity="1.000000" stroke="none" 
	d="
M612.589111,351.505707 
	C616.290955,350.893341 619.589722,349.919037 622.837219,350.067169 
	C624.873779,350.160004 626.833374,351.939758 628.827515,352.962646 
	C627.400879,354.476196 626.091248,356.131866 624.498535,357.443817 
	C623.693726,358.106689 622.376709,358.147614 621.765503,358.329010 
	C622.220032,365.464783 623.040283,372.210114 622.988831,378.948792 
	C622.908081,389.518311 616.594421,393.864838 606.810730,390.145233 
	C595.551208,385.864563 584.167847,382.608093 571.971985,382.875916 
	C568.392578,382.954529 566.651733,381.094330 566.755920,377.220703 
	C566.934753,370.569519 567.754150,364.086639 572.897461,359.405029 
	C575.215820,357.294739 578.476074,355.500061 581.529114,355.047455 
	C591.687073,353.541504 601.944824,352.709045 612.589111,351.505707 
M593.796631,375.638489 
	C592.406311,371.189453 591.015991,366.740417 589.555176,362.065826 
	C578.132263,361.416199 574.884705,364.103088 574.900024,374.535126 
	C581.107483,375.631592 587.273560,376.735077 593.455505,377.741791 
	C593.636414,377.771301 593.983643,376.779816 593.796631,375.638489 
M603.890869,379.642151 
	C603.684937,380.010071 603.479004,380.377991 603.273010,380.745911 
	C604.959167,381.384064 606.600098,382.239655 608.343567,382.602142 
	C610.275513,383.003876 613.144714,383.809326 614.076050,382.889709 
	C615.284546,381.696442 614.982849,378.973663 615.378662,376.628418 
	C611.152832,377.759277 607.834961,378.647156 603.890869,379.642151 
z"/>
<path fill="#040404" opacity="1.000000" stroke="none" 
	d="
M577.049316,473.002075 
	C570.504700,485.727173 561.666748,488.273102 551.115601,480.485626 
	C549.790039,479.507263 548.584106,476.738525 549.025330,475.334290 
	C549.937256,472.431946 552.482483,472.975922 554.769470,474.269287 
	C556.359436,475.168427 557.963440,476.085114 559.656738,476.750793 
	C563.453674,478.243378 566.614014,477.289459 568.554932,473.642822 
	C572.068420,467.041626 575.497986,460.392120 578.793579,453.679840 
	C580.905396,449.378815 580.342468,444.965515 577.186035,441.565216 
	C573.029602,437.087677 568.366394,433.064209 563.777710,429.007690 
	C554.741638,421.019562 550.297180,411.074280 550.638672,399.019501 
	C550.710449,396.487061 550.764160,393.539246 554.274109,393.611481 
	C557.600403,393.679962 557.941406,396.290771 557.834717,399.029968 
	C557.421692,409.638092 561.773743,417.949188 569.936584,424.579407 
	C574.052979,427.922913 578.161194,431.396271 581.660767,435.352539 
	C587.604492,442.072021 588.817017,449.811096 584.745178,458.034973 
	C582.310974,462.951385 579.716492,467.788513 577.049316,473.002075 
z"/>
<path fill="#040404" opacity="1.000000" stroke="none" 
	d="
M494.716766,521.134583 
	C488.222107,521.097290 482.140259,521.286316 476.068481,521.116150 
	C474.298401,521.066528 472.557037,519.991943 470.802490,519.387207 
	C471.795837,517.737610 472.428131,515.129211 473.842102,514.596863 
	C481.943817,511.546600 490.271240,512.370361 498.378784,514.672546 
	C515.117004,519.425476 532.012634,522.903137 549.529419,521.938904 
	C555.005310,521.637390 560.469604,520.986572 565.914001,520.296387 
	C570.563477,519.706970 575.215088,519.757019 578.439270,523.430542 
	C580.100525,525.323303 580.725891,528.386841 581.084106,531.021362 
	C581.211609,531.958862 579.256470,533.940186 578.089722,534.078796 
	C576.926941,534.216919 574.588867,532.778564 574.450623,531.794617 
	C573.828308,527.367554 570.981995,526.796204 567.579407,527.361389 
	C542.899536,531.460693 518.827393,528.632629 494.716766,521.134583 
z"/>
<path fill="#040404" opacity="1.000000" stroke="none" 
	d="
M490.235138,449.982361 
	C494.942932,448.758362 499.220184,447.313110 503.616058,446.618774 
	C505.222534,446.365021 507.110687,447.894745 508.870361,448.610870 
	C507.791046,450.174652 507.039368,452.550323 505.568512,453.143921 
	C501.755066,454.682861 497.644287,455.517883 493.614929,456.477448 
	C490.747528,457.160248 489.945923,458.587585 490.657074,461.516235 
	C492.315765,468.347229 497.966644,473.429565 505.056213,474.011871 
	C506.212219,474.106842 507.635010,473.658325 508.482605,474.186340 
	C509.841827,475.033051 511.681793,476.464447 511.712250,477.688660 
	C511.740082,478.808624 509.784027,480.762085 508.453552,481.009155 
	C496.352448,483.256622 482.592072,471.141937 483.057373,458.863312 
	C483.228912,454.336243 485.628662,451.482513 490.235138,449.982361 
z"/>
<path fill="#060606" opacity="1.000000" stroke="none" 
	d="
M497.563660,330.690002 
	C495.008301,327.880035 492.402283,325.578888 490.315063,322.876953 
	C489.182312,321.410614 488.932587,319.262054 488.284546,317.421234 
	C490.332489,317.098969 492.923065,315.816315 494.337372,316.615448 
	C501.690765,320.770264 505.971375,327.393158 506.941132,335.757599 
	C507.134369,337.424255 505.454102,340.374268 503.954498,340.948669 
	C500.851105,342.137390 499.798981,339.348846 499.170807,336.777435 
	C498.702271,334.859283 498.210541,332.946838 497.563660,330.690002 
z"/>
<path fill="#060606" opacity="1.000000" stroke="none" 
	d="
M568.742737,340.413147 
	C568.726257,344.029541 571.009094,348.779724 565.629333,349.121796 
	C560.227417,349.465179 561.086975,344.449585 560.919495,341.038177 
	C560.700867,336.585602 560.475403,332.031677 561.203369,327.680389 
	C561.531006,325.722046 564.117554,322.743622 565.752869,322.694672 
	C569.105408,322.594360 569.250793,325.795532 569.057617,328.647430 
	C568.802429,332.416138 568.770325,336.200012 568.742737,340.413147 
z"/>
<path fill="#040404" opacity="1.000000" stroke="none" 
	d="
M536.598389,475.368561 
	C531.585571,476.154114 526.812439,476.737335 522.024109,476.918335 
	C521.256897,476.947388 519.903259,475.248138 519.762573,474.219086 
	C519.619995,473.175476 520.356873,471.640961 521.210693,470.900330 
	C523.926025,468.545135 532.778931,468.090454 535.404968,470.388885 
	C536.441711,471.296356 536.389465,473.447937 536.598389,475.368561 
z"/>
<path fill="#060606" opacity="1.000000" stroke="none" 
	d="
M500.281738,624.428711 
	C498.704773,629.412964 496.895081,630.130310 493.313202,627.212524 
	C486.751312,621.867249 482.694061,614.897522 481.366943,606.583801 
	C481.108612,604.965271 482.873077,603.023804 483.704529,601.231323 
	C485.239441,602.153503 487.947845,602.894958 488.122101,604.026672 
	C489.419708,612.452759 494.611511,618.356384 500.281738,624.428711 
z"/>
<path fill="#4C2D1A" opacity="1.000000" stroke="none" 
	d="
M522.952759,749.614136 
	C520.363220,750.032227 517.757996,750.059143 514.727234,750.094727 
	C508.532745,742.628479 502.835205,735.097107 496.975861,727.693726 
	C490.367981,719.344482 483.614532,711.110474 476.815552,702.501343 
	C481.844971,705.656799 487.039612,709.057434 492.108582,712.636047 
	C500.199158,718.347961 508.206238,724.178101 516.889832,730.419067 
	C520.716797,725.191956 524.192627,720.404724 527.711853,715.649475 
	C530.835999,711.428101 534.008240,707.242310 537.494629,702.986694 
	C533.388306,716.620300 528.942566,730.306641 524.510010,743.997375 
	C523.949890,745.727661 523.459656,747.480591 522.952759,749.614136 
z"/>
<path fill="#F8F8F8" opacity="1.000000" stroke="none" 
	d="
M471.074463,775.875000 
	C472.417297,779.983521 473.686066,783.699829 474.954803,787.416077 
	C475.208069,787.389954 475.461334,787.363770 475.714600,787.337646 
	C477.210846,773.626160 478.707062,759.914734 480.225433,746.000366 
	C484.016083,745.622864 487.589233,745.266968 491.536194,744.873901 
	C489.568817,760.908386 487.781281,776.389404 485.714020,791.833008 
	C484.985443,797.275818 481.315430,800.472412 476.491089,800.794373 
	C471.835846,801.105103 468.031738,798.358582 466.273132,792.987732 
	C462.719757,782.135315 459.329926,771.229309 455.058777,760.356689 
	C453.440582,771.196716 451.839752,782.039307 450.197723,792.875732 
	C449.180542,799.588196 446.150238,803.010681 440.922089,803.471375 
	C435.521698,803.947266 432.108093,801.243469 430.084412,794.558838 
	C425.758881,780.270447 421.532104,765.952209 417.067291,750.983887 
	C420.890930,750.595764 424.548859,750.224426 428.412811,749.832214 
	C432.379608,763.752319 436.221039,777.232666 440.062500,790.712952 
	C440.323792,790.691772 440.585052,790.670532 440.846344,790.649292 
	C442.528137,779.435608 444.164001,768.214722 445.909149,757.010864 
	C446.935852,750.419617 449.636505,747.405884 454.499084,747.077148 
	C459.371277,746.747864 462.511444,749.276794 464.627960,755.576111 
	C466.846710,762.179871 468.883850,768.844604 471.074463,775.875000 
z"/>
<path fill="#F8F8F8" opacity="1.000000" stroke="none" 
	d="
M523.366943,756.537354 
	C526.794739,756.005005 529.793274,755.271057 532.815369,754.652466 
	C534.093506,754.390747 535.421326,754.371887 537.387573,754.177185 
	C538.493835,767.720886 539.580627,781.026428 540.694824,794.667358 
	C537.076294,794.955688 533.821594,795.214966 530.337402,795.492615 
	C530.055542,794.307739 529.801697,793.240417 529.544189,792.168091 
	C529.226257,792.237000 528.813232,792.207458 528.611877,792.399719 
	C522.489075,798.245239 515.410461,799.298889 507.937103,795.803467 
	C499.838348,792.015564 496.398346,784.908386 496.513794,776.315125 
	C496.628845,767.748108 500.873749,761.116272 508.868561,758.094116 
	C513.163391,756.470520 518.229248,756.886597 523.366943,756.537354 
M507.963531,774.893188 
	C506.488342,782.225342 513.083252,788.551819 520.359863,786.604309 
	C525.081726,785.340576 528.148132,781.066956 527.923157,776.205872 
	C527.706482,771.523315 524.382629,767.599792 519.898315,766.733032 
	C514.590149,765.706970 510.720428,768.112061 507.963531,774.893188 
z"/>
<path fill="#F7F7F7" opacity="1.000000" stroke="none" 
	d="
M569.771790,782.174805 
	C567.147644,780.302490 566.503479,775.938599 561.742310,777.456787 
	C562.090332,782.321045 562.443115,787.253296 562.828491,792.640259 
	C559.448364,792.976868 556.057739,793.314453 551.745605,793.743835 
	C550.192688,774.683838 548.650696,755.757385 547.070190,736.358398 
	C550.780151,736.118958 554.198425,735.898315 558.246399,735.637024 
	C559.191589,746.728149 560.116272,757.578857 561.153687,769.751953 
	C563.252136,768.248108 564.800537,767.404236 565.994507,766.206909 
	C567.149292,765.048889 568.124512,763.619446 568.858459,762.149414 
	C572.883118,754.089050 578.736389,749.440857 588.527222,751.999695 
	C584.085388,758.284546 579.425110,764.878357 574.417664,771.963440 
	C580.049500,777.838989 585.728516,783.763733 591.515381,789.801025 
	C581.805847,793.767395 575.354370,789.671570 569.771790,782.174805 
z"/>
<path fill="#F8F8F8" opacity="1.000000" stroke="none" 
	d="
M617.811035,779.156372 
	C620.236389,777.447083 622.283325,775.842834 624.778870,773.886902 
	C627.013367,774.814453 629.725403,775.940186 632.430908,777.063232 
	C628.411499,787.480652 617.782654,792.196106 606.515503,788.793091 
	C596.267700,785.697876 590.584412,775.213501 592.933228,763.737061 
	C595.039368,753.446533 604.905090,746.687439 615.705872,748.135376 
	C626.059998,749.523499 632.526855,757.947021 632.078430,769.680420 
	C622.728210,770.464600 613.348999,771.251160 603.903748,772.043335 
	C605.763611,778.832886 609.913940,780.945129 617.811035,779.156372 
M613.332886,757.918884 
	C606.954651,758.327515 604.578247,760.263000 604.008911,765.756470 
	C609.569275,765.300049 615.073425,764.848267 620.577515,764.396545 
	C620.812195,763.838806 621.046875,763.281128 621.281555,762.723389 
	C618.905945,761.144165 616.530396,759.564941 613.332886,757.918884 
z"/>
<path fill="#F6F6F6" opacity="1.000000" stroke="none" 
	d="
M594.025024,375.951447 
	C593.983643,376.779816 593.636414,377.771301 593.455505,377.741791 
	C587.273560,376.735077 581.107483,375.631592 574.900024,374.535126 
	C574.884705,364.103088 578.132263,361.416199 589.555176,362.065826 
	C591.015991,366.740417 592.406311,371.189453 594.025024,375.951447 
z"/>
<path fill="#EBEBEB" opacity="1.000000" stroke="none" 
	d="
M604.203979,379.588593 
	C607.834961,378.647156 611.152832,377.759277 615.378662,376.628418 
	C614.982849,378.973663 615.284546,381.696442 614.076050,382.889709 
	C613.144714,383.809326 610.275513,383.003876 608.343567,382.602142 
	C606.600098,382.239655 604.959167,381.384064 603.273010,380.745911 
	C603.479004,380.377991 603.684937,380.010071 604.203979,379.588593 
z"/>
<path fill="#060606" opacity="1.000000" stroke="none" 
	d="
M508.016174,774.489258 
	C510.720428,768.112061 514.590149,765.706970 519.898315,766.733032 
	C524.382629,767.599792 527.706482,771.523315 527.923157,776.205872 
	C528.148132,781.066956 525.081726,785.340576 520.359863,786.604309 
	C513.083252,788.551819 506.488342,782.225342 508.016174,774.489258 
M514.039551,777.232971 
	C515.703247,778.427368 517.366943,779.621826 519.030640,780.816223 
	C519.997803,779.423401 521.811768,777.953613 521.694031,776.659485 
	C521.576233,775.364807 519.717896,773.637756 518.281799,773.187866 
	C515.943970,772.455505 514.013306,773.477905 514.039551,777.232971 
z"/>
<path fill="#0F0F0F" opacity="1.000000" stroke="none" 
	d="
M613.743835,757.952332 
	C616.530396,759.564941 618.905945,761.144165 621.281555,762.723389 
	C621.046875,763.281128 620.812195,763.838806 620.577515,764.396545 
	C615.073425,764.848267 609.569275,765.300049 604.008911,765.756470 
	C604.578247,760.263000 606.954651,758.327515 613.743835,757.952332 
z"/>
<path fill="#180F0B" opacity="1.000000" stroke="none" 
	d="
M514.028931,776.835693 
	C514.013306,773.477905 515.943970,772.455505 518.281799,773.187866 
	C519.717896,773.637756 521.576233,775.364807 521.694031,776.659485 
	C521.811768,777.953613 519.997803,779.423401 519.030640,780.816223 
	C517.366943,779.621826 515.703247,778.427368 514.028931,776.835693 
z"/>
</svg>