<svg width="317" height="514" viewBox="0 0 317 514" fill="none" xmlns="http://www.w3.org/2000/svg">
<path d="M315.588 291.589L158.394 513.58V385.185L315.588 291.589Z" fill="#393939"/>
<path d="M315.588 291.589L158.394 513.58V385.185L315.588 291.589Z" fill="url(#paint0_linear_6424_966)"/>
<path d="M315.588 291.589L158.394 513.58V385.185L315.588 291.589Z" fill="#0000FF"/>
<path d="M1.20031 291.589L158.394 513.58V385.185L1.20031 291.589Z" fill="#393939"/>
<path d="M1.20031 291.589L158.394 513.58V385.185L1.20031 291.589Z" fill="#0000FF" fill-opacity="0.6"/>
<path d="M316.788 261.59L158.394 189.592V0L316.788 261.59Z" fill="#0000FF"/>
<path d="M316.788 261.59L158.394 189.592V0L316.788 261.59Z" fill="url(#paint1_linear_6424_966)"/>
<path d="M0.000362396 261.59L158.394 189.592V0L0.000362396 261.59Z" fill="#0000FF" fill-opacity="0.6"/>
<path d="M0.000362396 261.59L158.394 189.592V0L0.000362396 261.59Z" fill="url(#paint2_linear_6424_966)" fill-opacity="0.8"/>
<path d="M158.394 189.593V355.186L0 261.59L158.394 189.593Z" fill="#393939"/>
<path d="M158.394 189.593V355.186L0 261.59L158.394 189.593Z" fill="#5E01F5" fill-opacity="0.6"/>
<path d="M158.394 189.593V355.186L316.787 261.59L158.394 189.593Z" fill="#393939"/>
<path d="M158.394 189.593V355.186L316.787 261.59L158.394 189.593Z" fill="url(#paint3_linear_6424_966)"/>
<defs>
<linearGradient id="paint0_linear_6424_966" x1="315.588" y1="291.589" x2="158.394" y2="513.58" gradientUnits="userSpaceOnUse">
<stop stop-color="#6A00B7"/>
<stop offset="1" stop-color="#FF00FF"/>
</linearGradient>
<linearGradient id="paint1_linear_6424_966" x1="158.394" y1="0" x2="180.162" y2="272.503" gradientUnits="userSpaceOnUse">
<stop stop-color="#FE81FF"/>
<stop offset="1" stop-color="#B300B3"/>
</linearGradient>
<linearGradient id="paint2_linear_6424_966" x1="158.394" y1="0" x2="41.3549" y2="278.941" gradientUnits="userSpaceOnUse">
<stop stop-color="#FF00FF"/>
<stop offset="1" stop-color="#6A00B7"/>
</linearGradient>
<linearGradient id="paint3_linear_6424_966" x1="237.591" y1="343.186" x2="205.296" y2="180.294" gradientUnits="userSpaceOnUse">
<stop stop-color="#0000FF" stop-opacity="0.8"/>
<stop offset="1" stop-color="#9D01FF"/>
</linearGradient>
</defs>
</svg>
