<svg width="500" height="443" viewBox="0 0 500 443" fill="none" xmlns="http://www.w3.org/2000/svg">
<path d="M31.3118 330.694H55.1287L72.4261 417.744C72.5945 418.394 72.7629 418.563 72.9073 418.563C73.0516 418.563 73.2441 418.394 73.3884 417.744L89.2183 348.176C92.1533 334.787 98.8413 329.056 108.633 329.056C118.424 329.056 124.944 334.763 128.047 348.007L144.19 417.744C144.358 418.394 144.358 418.563 144.671 418.563C144.839 418.563 144.839 418.225 145.008 417.744L161.68 330.694H185.497L165.914 424.607C163.46 436.213 156.291 442.908 145.681 442.908C135.89 442.908 128.047 436.695 125.449 425.594L108.633 353.401L91.9849 426.076C89.531 436.695 81.3755 442.908 71.9209 442.908C61.7927 442.908 53.974 436.695 51.5201 425.112L31.3118 330.694Z" fill="white"/>
<path d="M299.746 322.531H322.913V391.135H330.588C331.406 389.666 332.392 388.197 333.523 386.728L355.872 359.783H383.442L349.834 399.973L383.274 440.644H355.704L333.354 413.217C332.2 411.748 331.237 410.11 330.419 408.473H322.913V440.644H299.746V322.531Z" fill="white"/>
<path d="M386.738 399.467C386.738 376.109 403.699 356.845 428.67 356.845C453.642 356.845 469.135 375.796 469.135 397.829V404.692H409.087C410.723 415.48 419.047 422.656 430.619 422.656C439.424 422.656 446.761 418.418 450.514 410.905L468.293 419.887C461.268 434.431 447.892 442.763 430.763 442.763C405.623 442.763 386.714 425.281 386.714 399.491L386.738 399.467ZM446.136 391.785C445.15 383.454 438.293 377.096 428.502 377.096C418.71 377.096 411.686 383.622 410.074 391.785H446.136Z" fill="white"/>
<path d="M277.06 399.949V357.326H255.023V362.576C248.672 359.205 241.262 357.326 233.155 357.326C208.351 357.326 189.418 376.759 189.418 399.949C189.418 423.138 205.897 442.739 229.402 442.739C240.492 442.739 249.297 438.332 255.023 431.132V440.596H277.06V399.924V399.949ZM233.155 421.019C221.246 421.019 212.585 411.555 212.585 400.117C212.585 388.679 221.222 379.215 233.155 379.215C245.087 379.215 253.868 388.679 253.868 400.117C253.868 411.555 245.063 421.019 233.155 421.019Z" fill="white"/>
<path fill-rule="evenodd" clip-rule="evenodd" d="M81.1379 53.081H52.3175L27.5577 23.8026H0V0H36.3226L81.1379 53.081Z" fill="white"/>
<path fill-rule="evenodd" clip-rule="evenodd" d="M288.626 29.3277L308.656 53.081H279.861L255.076 23.8026H244.875L220.115 53.081H101.739L81.2128 29.3277H211.35L236.11 0H263.841L288.626 29.3277Z" fill="white"/>
<path fill-rule="evenodd" clip-rule="evenodd" d="M500 0V23.8026H472.442L447.633 53.081H329.256L308.731 29.3277H438.868L463.677 0H500Z" fill="white"/>
<path fill-rule="evenodd" clip-rule="evenodd" d="M54.0011 58.4828L98.8164 111.564H69.996L45.2362 82.2853H0V58.4828H54.0011Z" fill="white"/>
<path fill-rule="evenodd" clip-rule="evenodd" d="M326.334 111.564H297.539L272.754 82.2853H227.196L202.436 111.564H119.417L98.8906 87.8105H193.622L218.431 58.4828H281.544L326.334 111.564Z" fill="white"/>
<path fill-rule="evenodd" clip-rule="evenodd" d="M499.999 58.4828V82.2853H454.739L429.954 111.564H346.934L326.408 87.8105H421.189L445.949 58.4828H499.999Z" fill="white"/>
<path fill-rule="evenodd" clip-rule="evenodd" d="M116.421 170.071H87.6002L62.7909 140.768H0V116.99H71.6053L116.421 170.071Z" fill="white"/>
<path fill-rule="evenodd" clip-rule="evenodd" d="M343.938 170.071H315.118L290.358 140.768H209.641L184.832 170.071H137.021L116.47 146.293H176.067L200.827 116.99H299.123L343.938 170.071Z" fill="white"/>
<path fill-rule="evenodd" clip-rule="evenodd" d="M499.999 116.99V140.768H437.134L412.375 170.071H364.539L343.988 146.293H403.61L428.369 116.99H499.999Z" fill="white"/>
<path fill-rule="evenodd" clip-rule="evenodd" d="M134.198 228.579H105.328L80.5684 199.251H0V175.448H89.3334L134.198 228.579Z" fill="white"/>
<path fill-rule="evenodd" clip-rule="evenodd" d="M361.716 228.579H332.846L308.086 199.251H191.864L167.104 228.579H154.798L134.223 204.776H158.339L183.099 175.448H316.851L361.716 228.579Z" fill="white"/>
<path fill-rule="evenodd" clip-rule="evenodd" d="M499.999 175.448V199.251H419.431L394.622 228.579H382.316L361.741 204.776H385.857L410.666 175.448H499.999Z" fill="white"/>
<path fill-rule="evenodd" clip-rule="evenodd" d="M107.061 233.956L150.614 285.532L149.351 287.037H123.081L98.2717 257.709H0V233.956H107.061Z" fill="white"/>
<path fill-rule="evenodd" clip-rule="evenodd" d="M334.554 233.956L378.156 285.557L376.893 287.037H350.598L325.838 257.709H174.135L160.79 273.52L146.181 256.624L165.37 233.956H334.554Z" fill="white"/>
<path fill-rule="evenodd" clip-rule="evenodd" d="M499.999 233.956V257.709H401.653L388.283 273.52L373.699 256.648L392.888 233.956H499.999Z" fill="white"/>
</svg>
