<svg width="693" height="285" viewBox="0 0 693 285" fill="none" xmlns="http://www.w3.org/2000/svg">
<path d="M617.835 232.196H609.877V269.86H617.835V232.196Z" fill="black"/>
<path d="M617.835 217.724H609.877V225.745H617.835V217.724Z" fill="black"/>
<path d="M463.353 230.802C452.455 230.802 443.805 239.694 443.805 251.029C443.805 262.363 452.801 271.255 463.872 271.255C470.1 271.255 475.809 268.466 479.787 263.409L472.695 259.398C470.446 261.839 467.332 263.06 464.045 263.06C459.028 263.06 454.531 259.921 452.628 255.213V254.865H482.901V250.854C482.901 239.52 474.252 230.627 463.353 230.627V230.802ZM452.455 247.018V246.669C454.185 241.787 458.509 238.823 463.353 238.823C468.197 238.823 472.522 241.961 474.252 246.669V247.018H452.455Z" fill="black"/>
<path d="M423.046 247.193C415.78 245.972 414.396 244.403 414.396 242.136C414.396 239.346 416.818 237.602 420.97 237.602C424.776 237.602 427.544 239.346 428.409 243.008H436.712C435.847 235.336 430.139 230.976 420.797 230.976C411.456 230.976 405.747 235.859 405.747 242.659C405.747 249.459 409.726 252.598 419.759 254.342C427.371 255.737 428.755 257.132 428.755 259.747C428.755 262.712 425.987 264.63 421.489 264.63C418.202 264.63 414.05 263.758 412.667 258.527H404.363C405.228 266.722 411.283 271.604 421.316 271.604C431.35 271.604 437.231 266.548 437.231 259.05C437.231 252.424 432.906 248.936 422.7 247.367L423.046 247.193Z" fill="black"/>
<path d="M561.094 252.598C561.094 258.701 556.769 263.06 550.714 263.06C544.659 263.06 540.335 258.701 540.335 252.598V232.371H532.031V252.598C532.031 258.004 533.934 262.886 537.567 266.199C541.026 269.512 545.87 271.43 550.887 271.43C555.904 271.43 560.748 269.686 564.207 266.199C567.84 262.886 569.743 257.829 569.743 252.598V232.371H561.44V252.598H561.094Z" fill="black"/>
<path d="M509.196 238.822C513.002 238.822 516.462 240.566 518.71 243.53L525.976 239.869C522.17 234.114 515.943 230.801 509.196 230.801C498.124 230.801 489.129 239.869 489.129 251.028C489.129 262.188 498.124 271.255 509.196 271.255C515.943 271.255 522.17 267.942 525.976 262.188L518.71 258.526C516.462 261.491 513.002 263.234 509.196 263.234C502.449 263.234 497.087 257.654 497.087 251.028C497.087 244.402 502.622 238.822 509.196 238.822Z" fill="black"/>
<path d="M637.729 222.432H629.426V252.598C629.426 258.004 631.328 262.886 634.961 266.199C635.653 266.897 636.518 267.594 637.383 268.117C640.497 270.21 644.303 271.43 648.282 271.43H651.741V263.06H648.282C642.054 263.06 637.902 258.701 637.902 252.598V240.567H651.741V232.546H637.902V222.607L637.729 222.432Z" fill="black"/>
<path d="M588.081 232.197H579.604V269.861H588.081V253.819C588.081 246.146 594.135 240.043 601.747 240.043V231.674C596.557 231.674 591.886 233.592 588.081 236.556V232.197Z" fill="black"/>
<path d="M683.745 232.371L676.825 261.665H675.441C675.441 261.665 673.711 260.793 673.538 259.921L666.618 232.371H657.969L665.407 262.014C666.618 266.547 670.424 269.686 674.749 270.035L671.289 284.856H679.42L682.88 270.035V269.686L691.875 232.196H683.572L683.745 232.371Z" fill="black"/>
<path d="M79.3118 230.802C68.2404 230.802 59.2448 239.869 59.2448 251.028C59.2448 262.188 68.2404 271.255 79.3118 271.255C90.3833 271.255 99.3789 262.188 99.3789 251.028C99.3789 239.869 90.3833 230.802 79.3118 230.802ZM79.3118 263.06C72.7382 263.06 67.5484 257.655 67.5484 251.203C67.5484 244.751 72.9111 239.346 79.3118 239.346C85.7125 239.346 91.0753 244.751 91.0753 251.203C91.0753 257.655 85.7125 263.06 79.3118 263.06Z" fill="black"/>
<path d="M371.495 235.858C368.035 232.545 363.364 230.802 358.175 230.802C354.369 230.802 350.736 231.848 347.622 233.766V232.197H339.318V269.86H347.622V249.459C347.622 243.356 351.947 238.997 358.175 238.997C364.402 238.997 368.727 243.356 368.727 249.459V269.686H377.031V249.459C377.031 244.054 374.955 239.171 371.495 235.684V235.858Z" fill="black"/>
<path d="M243.827 230.802C240.022 230.802 236.389 231.848 233.275 233.766V217.375H224.971V270.035H233.275V249.634C233.275 243.531 237.6 239.172 243.827 239.172C250.055 239.172 254.38 243.531 254.38 249.634V269.861H262.683V249.634C262.683 244.228 260.608 239.346 257.148 235.859C253.688 232.546 249.017 230.802 243.827 230.802Z" fill="black"/>
<path d="M20.1488 230.802C15.824 230.802 11.6722 232.197 8.38539 234.638V217.376H0.0817871V270.035H8.38539V267.594C11.6722 270.035 15.824 271.43 20.1488 271.43C31.2203 271.43 40.2159 262.363 40.2159 251.203C40.2159 240.044 31.2203 230.976 20.1488 230.976V230.802ZM20.1488 263.061C13.5751 263.061 8.38539 257.655 8.38539 251.203C8.38539 244.752 13.7481 239.346 20.1488 239.346C26.5495 239.346 31.9123 244.752 31.9123 251.203C31.9123 257.655 26.5495 263.061 20.1488 263.061Z" fill="black"/>
<path d="M301.779 234.986L301.433 234.638C297.974 232.197 293.995 230.802 289.67 230.802C278.598 230.802 269.603 239.869 269.603 251.028C269.603 262.188 278.598 271.255 289.67 271.255C293.995 271.255 297.974 269.86 301.433 267.419L301.779 267.071V269.686H309.737V232.197H301.779V234.986ZM289.67 263.409C282.923 263.409 277.56 257.829 277.56 251.203C277.56 244.577 283.096 238.997 289.67 238.997C296.244 238.997 301.779 244.402 301.779 251.203C301.779 258.003 296.244 263.409 289.67 263.409Z" fill="black"/>
<path d="M123.252 238.823C127.058 238.823 130.518 240.566 132.766 243.531L140.032 239.869C136.226 234.115 129.999 230.802 123.252 230.802C112.18 230.802 103.185 239.869 103.185 251.028C103.185 262.188 112.18 271.255 123.252 271.255C129.999 271.255 136.226 267.942 140.032 262.188L132.766 258.526C130.518 261.491 127.058 263.234 123.252 263.234C116.505 263.234 111.142 257.829 111.142 251.028C111.142 244.228 116.678 238.823 123.252 238.823Z" fill="black"/>
<path d="M201.444 238.823C205.25 238.823 208.71 240.566 210.959 243.531L218.224 239.869C214.418 234.115 208.191 230.802 201.444 230.802C190.373 230.802 181.377 239.869 181.377 251.028C181.377 262.188 190.373 271.255 201.444 271.255C208.191 271.255 214.418 267.942 218.224 262.188L210.959 258.526C208.71 261.491 205.25 263.234 201.444 263.234C194.697 263.234 189.335 257.829 189.335 251.028C189.335 244.228 194.87 238.823 201.444 238.823Z" fill="black"/>
<path d="M181.031 232.371H170.652L158.715 246.844H154.044V217.375H146.087V270.035H154.044V255.562H158.715L170.652 270.035H181.031L165.462 251.203L181.031 232.371Z" fill="black"/>
<path d="M53.8822 217.375H45.9246V270.035H53.8822V217.375Z" fill="black"/>
<path d="M329.112 232.371H321.154V270.035H329.112V232.371Z" fill="black"/>
<path d="M329.112 217.898H321.154V225.919H329.112V217.898Z" fill="black"/>
<path fill-rule="evenodd" clip-rule="evenodd" d="M376.185 173.051L337.012 125.675H321.571V173.051H295.416V0.808014H321.571V97.3547H337.012L376.152 49.9791H410.166L359.326 111.515L410.204 173.051H376.185ZM66.0933 71.4009C44.117 71.4009 26.2346 89.3977 26.2346 111.515C26.2346 133.631 44.117 151.628 66.0933 151.628C88.0695 151.628 105.947 133.631 105.947 111.515C105.947 89.3977 88.0695 71.4009 66.0933 71.4009ZM66.095 177.95C29.6964 177.95 0.0817871 148.146 0.0817871 111.514C0.0817871 74.8831 29.6964 45.079 66.095 45.079C80.0244 45.079 93.367 49.4353 104.677 57.6612L105.949 58.5872V49.9786H132.104V173.05H105.949V164.442L104.677 165.363C93.3717 173.598 80.0244 177.95 66.095 177.95ZM220.46 177.95C184.066 177.95 154.451 148.146 154.451 111.514C154.451 74.8831 184.066 45.079 220.46 45.079C242.666 45.079 263.154 56.1681 275.445 74.7744L251.718 86.6431C244.117 76.9478 232.76 71.4009 220.46 71.4009C198.484 71.4009 180.606 89.3977 180.601 111.514C180.606 133.631 198.484 151.628 220.46 151.628C232.76 151.628 244.117 146.086 251.718 136.386L275.445 148.255C263.154 166.861 242.666 177.95 220.46 177.95ZM479.993 71.4009C463.664 71.4009 449.693 81.564 444.392 97.2881L444.035 98.3512H515.95L515.588 97.2881C510.293 81.564 496.321 71.4009 479.993 71.4009ZM481.971 177.95C445.573 177.95 415.958 148.146 415.958 111.514C415.958 74.2641 444.084 45.079 479.99 45.079C515.896 45.079 544.017 74.2641 544.017 111.514V124.673H444.3L444.713 125.764C450.572 141.238 465.553 151.628 481.971 151.628C492.858 151.628 502.957 147.347 510.482 139.551L533.952 152.469C521.341 168.675 502.454 177.95 481.971 177.95ZM628.024 71.4009C611.695 71.4009 597.724 81.564 592.423 97.2881L592.067 98.3512H663.977L663.62 97.2881C658.324 81.564 644.348 71.4009 628.024 71.4009ZM630.002 177.95C593.604 177.95 563.989 148.146 563.989 111.514C563.989 74.2641 592.115 45.079 628.021 45.079C663.922 45.079 692.048 74.2641 692.048 111.514V124.673H592.331L592.745 125.764C598.604 141.238 613.575 151.628 630.002 151.628C640.885 151.628 650.983 147.347 658.514 139.551L681.983 152.469C669.373 168.675 650.481 177.95 630.002 177.95Z" fill="black"/>
</svg>
