<svg width="693" height="285" viewBox="0 0 693 285" fill="none" xmlns="http://www.w3.org/2000/svg">
<path d="M617.835 232.066H609.877V269.73H617.835V232.066Z" fill="white"/>
<path d="M617.835 217.594H609.877V225.615H617.835V217.594Z" fill="white"/>
<path d="M463.353 230.671C452.455 230.671 443.805 239.564 443.805 250.898C443.805 262.232 452.801 271.125 463.872 271.125C470.1 271.125 475.809 268.335 479.787 263.279L472.695 259.268C470.446 261.709 467.332 262.93 464.045 262.93C459.028 262.93 454.531 259.791 452.628 255.083V254.735H482.901V250.724C482.901 239.39 474.252 230.497 463.353 230.497V230.671ZM452.455 246.888V246.539C454.185 241.657 458.509 238.692 463.353 238.692C468.197 238.692 472.522 241.831 474.252 246.539V246.888H452.455Z" fill="white"/>
<path d="M423.046 247.063C415.78 245.842 414.396 244.273 414.396 242.006C414.396 239.216 416.818 237.472 420.97 237.472C424.776 237.472 427.544 239.216 428.409 242.878H436.712C435.847 235.205 430.139 230.846 420.797 230.846C411.456 230.846 405.747 235.728 405.747 242.529C405.747 249.329 409.726 252.468 419.759 254.212C427.371 255.607 428.755 257.002 428.755 259.617C428.755 262.581 425.987 264.5 421.489 264.5C418.202 264.5 414.05 263.628 412.667 258.397H404.363C405.228 266.592 411.283 271.474 421.316 271.474C431.35 271.474 437.231 266.418 437.231 258.92C437.231 252.294 432.906 248.806 422.7 247.237L423.046 247.063Z" fill="white"/>
<path d="M561.094 252.468C561.094 258.571 556.769 262.93 550.714 262.93C544.659 262.93 540.335 258.571 540.335 252.468V232.241H532.031V252.468C532.031 257.873 533.934 262.756 537.567 266.069C541.026 269.382 545.87 271.3 550.887 271.3C555.904 271.3 560.748 269.556 564.207 266.069C567.84 262.756 569.743 257.699 569.743 252.468V232.241H561.44V252.468H561.094Z" fill="white"/>
<path d="M509.196 238.692C513.002 238.692 516.462 240.436 518.71 243.4L525.976 239.739C522.17 233.984 515.943 230.671 509.196 230.671C498.124 230.671 489.129 239.739 489.129 250.898C489.129 262.058 498.124 271.125 509.196 271.125C515.943 271.125 522.17 267.812 525.976 262.058L518.71 258.396C516.462 261.36 513.002 263.104 509.196 263.104C502.449 263.104 497.087 257.524 497.087 250.898C497.087 244.272 502.622 238.692 509.196 238.692Z" fill="white"/>
<path d="M637.729 222.302H629.426V252.468C629.426 257.874 631.328 262.756 634.961 266.069C635.653 266.766 636.518 267.464 637.383 267.987C640.497 270.079 644.303 271.3 648.282 271.3H651.741V262.93H648.282C642.054 262.93 637.902 258.571 637.902 252.468V240.437H651.741V232.415H637.902V222.476L637.729 222.302Z" fill="white"/>
<path d="M588.081 232.067H579.604V269.731H588.081V253.689C588.081 246.016 594.135 239.913 601.747 239.913V231.544C596.557 231.544 591.886 233.462 588.081 236.426V232.067Z" fill="white"/>
<path d="M683.745 232.241L676.825 261.535H675.441C675.441 261.535 673.711 260.663 673.538 259.791L666.618 232.241H657.969L665.407 261.883C666.618 266.417 670.424 269.556 674.749 269.904L671.289 284.726H679.42L682.88 269.904V269.556L691.875 232.066H683.572L683.745 232.241Z" fill="white"/>
<path d="M79.3118 230.671C68.2404 230.671 59.2448 239.739 59.2448 250.898C59.2448 262.058 68.2404 271.125 79.3118 271.125C90.3833 271.125 99.3789 262.058 99.3789 250.898C99.3789 239.739 90.3833 230.671 79.3118 230.671ZM79.3118 262.93C72.7382 262.93 67.5484 257.524 67.5484 251.073C67.5484 244.621 72.9111 239.216 79.3118 239.216C85.7125 239.216 91.0753 244.621 91.0753 251.073C91.0753 257.524 85.7125 262.93 79.3118 262.93Z" fill="white"/>
<path d="M371.495 235.728C368.035 232.415 363.364 230.671 358.175 230.671C354.369 230.671 350.736 231.718 347.622 233.636V232.066H339.318V269.73H347.622V249.329C347.622 243.226 351.947 238.867 358.175 238.867C364.402 238.867 368.727 243.226 368.727 249.329V269.556H377.031V249.329C377.031 243.924 374.955 239.041 371.495 235.554V235.728Z" fill="white"/>
<path d="M243.827 230.672C240.022 230.672 236.389 231.718 233.275 233.636V217.245H224.971V269.905H233.275V249.504C233.275 243.401 237.6 239.041 243.827 239.041C250.055 239.041 254.38 243.401 254.38 249.504V269.731H262.683V249.504C262.683 244.098 260.608 239.216 257.148 235.728C253.688 232.415 249.017 230.672 243.827 230.672Z" fill="white"/>
<path d="M20.1488 230.672C15.824 230.672 11.6722 232.067 8.38539 234.508V217.245H0.0817871V269.905H8.38539V267.464C11.6722 269.905 15.824 271.3 20.1488 271.3C31.2203 271.3 40.2159 262.233 40.2159 251.073C40.2159 239.914 31.2203 230.846 20.1488 230.846V230.672ZM20.1488 262.93C13.5751 262.93 8.38539 257.525 8.38539 251.073C8.38539 244.622 13.7481 239.216 20.1488 239.216C26.5495 239.216 31.9123 244.622 31.9123 251.073C31.9123 257.525 26.5495 262.93 20.1488 262.93Z" fill="white"/>
<path d="M301.779 234.856L301.433 234.508C297.974 232.066 293.995 230.671 289.67 230.671C278.598 230.671 269.603 239.739 269.603 250.898C269.603 262.058 278.598 271.125 289.67 271.125C293.995 271.125 297.974 269.73 301.433 267.289L301.779 266.94V269.556H309.737V232.066H301.779V234.856ZM289.67 263.279C282.923 263.279 277.56 257.699 277.56 251.073C277.56 244.447 283.096 238.867 289.67 238.867C296.244 238.867 301.779 244.272 301.779 251.073C301.779 257.873 296.244 263.279 289.67 263.279Z" fill="white"/>
<path d="M123.252 238.692C127.058 238.692 130.518 240.436 132.766 243.4L140.032 239.739C136.226 233.984 129.999 230.671 123.252 230.671C112.18 230.671 103.185 239.739 103.185 250.898C103.185 262.058 112.18 271.125 123.252 271.125C129.999 271.125 136.226 267.812 140.032 262.058L132.766 258.396C130.518 261.36 127.058 263.104 123.252 263.104C116.505 263.104 111.142 257.699 111.142 250.898C111.142 244.098 116.678 238.692 123.252 238.692Z" fill="white"/>
<path d="M201.444 238.692C205.25 238.692 208.71 240.436 210.959 243.4L218.224 239.739C214.418 233.984 208.191 230.671 201.444 230.671C190.373 230.671 181.377 239.739 181.377 250.898C181.377 262.058 190.373 271.125 201.444 271.125C208.191 271.125 214.418 267.812 218.224 262.058L210.959 258.396C208.71 261.36 205.25 263.104 201.444 263.104C194.697 263.104 189.335 257.699 189.335 250.898C189.335 244.098 194.87 238.692 201.444 238.692Z" fill="white"/>
<path d="M181.031 232.241H170.652L158.715 246.714H154.044V217.245H146.087V269.905H154.044V255.432H158.715L170.652 269.905H181.031L165.462 251.073L181.031 232.241Z" fill="white"/>
<path d="M53.8822 217.245H45.9246V269.905H53.8822V217.245Z" fill="white"/>
<path d="M329.112 232.241H321.154V269.905H329.112V232.241Z" fill="white"/>
<path d="M329.112 217.768H321.154V225.789H329.112V217.768Z" fill="white"/>
<path fill-rule="evenodd" clip-rule="evenodd" d="M376.185 172.921L337.012 125.545H321.571V172.921H295.416V0.677856H321.571V97.2245H337.012L376.152 49.8489H410.166L359.326 111.385L410.204 172.921H376.185ZM66.0933 71.2707C44.117 71.2707 26.2346 89.2675 26.2346 111.384C26.2346 133.501 44.117 151.498 66.0933 151.498C88.0695 151.498 105.947 133.501 105.947 111.384C105.947 89.2675 88.0695 71.2707 66.0933 71.2707ZM66.095 177.82C29.6964 177.82 0.0817871 148.016 0.0817871 111.384C0.0817871 74.7529 29.6964 44.9488 66.095 44.9488C80.0244 44.9488 93.367 49.3051 104.677 57.531L105.949 58.4571V49.8485H132.104V172.92H105.949V164.312L104.677 165.233C93.3717 173.468 80.0244 177.82 66.095 177.82ZM220.46 177.82C184.066 177.82 154.451 148.016 154.451 111.384C154.451 74.7529 184.066 44.9488 220.46 44.9488C242.666 44.9488 263.154 56.038 275.445 74.6442L251.718 86.513C244.117 76.8177 232.76 71.2707 220.46 71.2707C198.484 71.2707 180.606 89.2675 180.601 111.384C180.606 133.501 198.484 151.498 220.46 151.498C232.76 151.498 244.117 145.956 251.718 136.256L275.445 148.124C263.154 166.731 242.666 177.82 220.46 177.82ZM479.993 71.2707C463.664 71.2707 449.693 81.4338 444.392 97.158L444.035 98.221H515.95L515.588 97.158C510.293 81.4338 496.321 71.2707 479.993 71.2707ZM481.971 177.82C445.573 177.82 415.958 148.016 415.958 111.384C415.958 74.134 444.084 44.9488 479.99 44.9488C515.896 44.9488 544.017 74.134 544.017 111.384V124.543H444.3L444.713 125.634C450.572 141.108 465.553 151.498 481.971 151.498C492.858 151.498 502.957 147.217 510.482 139.421L533.952 152.339C521.341 168.545 502.454 177.82 481.971 177.82ZM628.024 71.2707C611.695 71.2707 597.724 81.4338 592.423 97.158L592.067 98.221H663.977L663.62 97.158C658.324 81.4338 644.348 71.2707 628.024 71.2707ZM630.002 177.82C593.604 177.82 563.989 148.016 563.989 111.384C563.989 74.134 592.115 44.9488 628.021 44.9488C663.922 44.9488 692.048 74.134 692.048 111.384V124.543H592.331L592.745 125.634C598.604 141.108 613.575 151.498 630.002 151.498C640.885 151.498 650.983 147.217 658.514 139.421L681.983 152.339C669.373 168.545 650.481 177.82 630.002 177.82Z" fill="white"/>
</svg>
